<?xml version="1.0" encoding="utf-8" ?>
<svg xmlns="http://www.w3.org/2000/svg" xmlns:xlink="http://www.w3.org/1999/xlink" width="1024" height="1024">
	<path fill="#FEFEFE" d="M0 0L1024 0L1024 1024L0 1024L0 0Z"/>
	<path d="M719.117 156.298C715.939 151.504 713.231 146.724 711.573 141.185C708.157 130.085 709.373 118.076 714.944 107.886C720.542 97.8725 729.897 90.5002 740.943 87.3989C751.619 84.4709 763.733 85.7934 773.318 91.4226C783.227 97.2647 790.417 106.795 793.315 117.927C796.246 128.979 794.552 140.748 788.624 150.526C782.872 160.117 773.543 167.028 762.692 169.737C752.227 172.308 741.168 170.601 731.964 164.996C723.364 177.571 713.559 189.475 704.284 201.558C694.562 214.224 685.195 227.173 675.286 239.694C677.369 241.329 678.919 242.795 680.539 244.907C679.462 249.283 676.947 253.484 676.154 257.833C675.909 259.177 676.435 259.547 677.178 260.646L677.599 261.261C677.679 264.732 676.022 268.706 675.021 272.031C696.05 287.791 711.423 306.254 719.949 331.46C731.264 364.908 735.324 421.494 728.708 456.154C726.606 466.876 723.092 477.272 718.257 487.07C702.836 517.834 674.974 532.254 643.777 542.6C645.939 546.06 647.431 549.698 648.953 553.473C650.311 552.634 651.762 551.941 653.18 551.212C659.613 552.536 666.128 553.476 672.568 554.779C676.732 555.621 687.244 557.014 689.455 560.335C689.457 561.105 689.357 562.154 689.548 562.89C689.592 563.059 689.864 563.709 690.079 563.863C692.676 565.725 697.448 567.103 700.473 568.489C706.196 571.046 711.756 573.954 717.12 577.197C724.242 581.433 730.525 586.318 737.258 591.078C742.024 594.448 747.044 596.927 751.069 601.281C752.077 602.372 752.382 605.781 753.858 607.879C771.08 632.362 785.708 656.464 793.031 685.935C793.793 688.999 798.3 711.984 798.214 714.712C798.179 715.829 797.3 717.053 796.735 717.985C797.487 719.773 798.16 721.569 798.719 723.426C805.611 746.343 804.743 772.462 793.21 793.767C791.337 797.227 789.128 801.36 785.139 802.562C784.261 802.392 783.749 802.468 783.094 801.793C781.269 799.916 781.794 796.654 781.833 794.231C778.384 800.185 769.709 812.738 762.629 814.324C761.311 814.619 760.688 814.334 759.547 813.714C756.111 808.943 759.014 799.278 759.768 793.802C756.555 798.547 752.807 802.985 748.435 806.711C745.864 808.902 742.088 812.109 738.568 811.807C737.575 811.193 737.256 811.008 736.819 809.849C734.736 804.333 743.489 784.909 743.804 776.534C744.075 769.336 741.725 760.76 739.217 754.043L738.959 753.363C736.062 758.747 731.811 765.824 726.181 768.654C723.147 770.179 715.265 772.076 712.106 770.564C710.982 770.026 710.557 769.183 710.289 768.011C709.244 763.441 718.735 750.719 721.101 746.603C723.633 742.2 722.969 736.706 725.911 732.5C729.731 727.039 735.212 722.711 739.308 717.381L739.853 716.665C739.151 710.318 742.009 704.435 741.592 697.961C740.62 682.854 728.04 654.585 721.118 641.01C719.576 637.985 719.062 637.788 715.725 636.699C713.575 633.685 711.704 630.384 709.338 627.544C702.412 619.229 691.339 613.733 682.132 608.29C681.621 609.69 681.313 610.898 680.083 611.846C675.434 613.175 669.738 610.082 665.064 609.094C670.409 633.791 669.97 658.851 668.261 683.907C667.655 692.785 667.146 701.664 665.834 710.474C662.159 735.148 655.54 756.058 634.779 771.551C639.385 783.366 645.457 795.112 650.876 806.608C653.275 811.698 657.289 817.834 658.206 823.39C660.651 838.197 656.821 855.569 655.255 870.355C656.5 871.255 657.903 872.025 659.07 873.018C661.493 875.079 661.255 878.539 661.352 881.418C675.292 884.366 689.295 888.121 700.684 897.115C703.801 899.577 706.515 902.504 709.437 905.186C712.979 908.437 716.642 911.379 719.837 915.004C731.164 916.574 766.858 919.893 773.636 928.701C774.318 929.586 774.451 930.294 774.451 931.381C773.248 934.285 770.365 935.542 767.604 936.682C747.223 945.093 704.868 947.795 681.94 949.65C599.163 956.427 516.058 958.288 433.061 955.225C394.796 953.874 356.908 951.899 318.809 947.903C301.445 946.082 273.457 943.633 257.891 937.115C255.388 936.066 250.619 934.164 249.485 931.56C249.054 930.569 249.365 929.755 249.882 928.872C254.152 921.581 286.161 917.348 294.963 916.314C297.442 916.023 299.956 915.837 302.399 915.324C305.642 911.421 309.429 908.288 313.137 904.848C315.924 902.263 318.573 899.434 321.558 897.08C332.806 888.209 347.21 884.279 361.046 881.742C361.086 879.785 360.984 877.419 361.545 875.548C362.305 873.012 364.626 871.924 366.772 870.748C365.11 858.861 361.429 833.43 364.002 822.161C365.148 817.142 368.481 812.282 370.705 807.646L387.905 772.137C381.984 767.942 377.186 763.293 372.886 757.423C358.506 737.795 355.925 712.311 354.158 688.75C352.017 660.202 352.234 637.752 356.738 609.345C351.88 610.238 347.17 611.902 342.315 612.899L339.792 608.648C332.8 611.811 318.257 620.999 313.157 626.671C311.053 629.012 310.122 632.226 308.048 634.577C306.537 636.291 304.231 637.135 302.664 638.79C300.737 640.827 299.352 644.797 298.119 647.386C290.603 663.179 282.586 681.802 281.119 699.364C280.653 704.939 282.828 709.936 282.673 715.455L282.646 716.206C286.349 722.488 292.332 726.715 296.531 732.541C299.313 736.402 299.495 741.723 301.166 746.115C303.235 751.553 313.391 762.48 312.091 767.788C311.87 768.69 310.68 769.564 309.884 769.987C297.175 776.747 286.242 756.144 283.305 755.312C283.188 755.434 283.056 755.543 282.955 755.678C281.583 757.497 281.106 761.403 280.469 763.638C276.686 776.904 279.117 783.133 283.203 795.99C284.148 798.966 285.292 802.032 285.673 805.141C285.949 807.388 285.806 809.082 284.391 810.908C283.214 811.585 282.573 811.747 281.209 811.515C273.715 810.238 266.586 799.124 262.282 793.523C263.053 797.541 264.042 801.701 264.321 805.784C264.523 808.727 264.512 811.319 262.536 813.646C261.211 814.255 260.5 814.549 259.036 814.199C251.652 812.436 243.024 799.45 239.589 793.204C239.732 795.636 240.222 798.748 239.825 801.111C239.644 802.185 238.792 802.609 237.959 803.174C236.267 803.18 235.498 802.823 234.293 801.611C224.735 791.992 219.941 771.387 219.269 758.342C218.867 750.549 219.576 742.449 220.867 734.772C221.468 731.205 225.083 719.333 225.067 717.802C224.109 715.966 223.336 714.774 223.768 712.619C224.521 711.74 225.143 711.046 225.388 709.873C226.189 706.036 226.415 701.996 227.065 698.114C228.583 688.847 230.923 679.733 234.058 670.881C242.456 647.193 254.751 626.144 269.848 606.147C269.944 605.05 269.973 603.582 270.469 602.589C272.399 598.725 279.817 594.414 283.299 592C288.47 588.414 293.411 584.472 298.692 581.048C309.229 574.216 320.728 568.716 332.425 564.21C332.481 562.738 332.612 561.382 332.858 559.93C335.995 556.094 358.658 553.246 364.306 552.289C367.297 551.782 370.112 552.331 373.084 552.767C375.345 550.007 376.912 545.537 378.504 542.305C352.245 536.017 323.161 518.372 308.991 495.025C304.603 487.796 300.582 479.89 298.001 471.817C286.606 436.174 289.994 380.59 298.831 344.329C305.844 315.552 322.389 288.095 348.116 272.429L346.846 268.498C345.295 263.71 346.566 259.311 345.567 254.541C344.954 251.614 342.858 248.248 343.07 245.303C343.228 243.115 345.677 241.574 347.227 240.257C343.536 234.419 338.805 228.946 334.607 223.449L313.263 195.312C305.708 185.464 298.713 174.35 290.311 165.273C285.906 167.627 281.814 169.405 276.859 170.229C265.814 172.066 254.405 169.669 245.318 163.055C236.122 156.304 230.025 146.142 228.394 134.852C226.694 123.587 229.567 112.11 236.374 102.974C243.155 93.8139 253.367 87.8031 264.667 86.3212C275.627 84.9118 286.768 87.6394 295.545 94.4245C304.956 101.7 311.057 112.06 312.479 123.887C313.884 135.563 310.509 146.972 303.245 156.17C311.221 164.351 318.246 173.999 325.662 182.737C338.795 198.212 352.282 213.421 365.182 229.086C367.311 227.206 370.335 224.372 373.251 224.139C374.336 224.052 375.53 224.734 376.375 225.386C379.58 227.86 381.54 231.75 384.558 234.464C389.563 238.965 395.291 242.058 400.182 246.885C409.289 243.017 420.696 241.612 430.419 239.873C481.339 230.769 540.102 231.122 591.121 239.64C601.728 241.411 612.12 243.934 622.568 246.448C627.149 242.185 632.335 239.633 637.066 235.753C641.755 231.907 644.148 226.838 649.513 223.436C652.412 225.083 654.835 226.849 657.368 228.996C672.614 212.013 687.232 194.218 701.925 176.743C707.655 169.928 713.153 162.913 719.117 156.298Z"/>
	<path fill="#D8D7D7" d="M432.377 907.376C441.306 907.57 450.265 906.932 459.188 906.621C470.384 906.267 481.585 906.077 492.786 906.051C512.944 905.885 533.103 906 553.257 906.396C565.588 906.661 577.945 907.383 590.271 907.477C589.717 911.879 588.216 918.772 591.367 922.511C594.336 926.035 613.583 931.76 618.504 931.879C619.668 931.907 620.824 931.721 621.971 931.548C624.805 932.933 626.694 936.061 629.491 937.195C633.462 938.806 638.311 939.428 642.517 940.464C650.574 942.45 673.43 949.646 680.419 947.094C681.425 946.727 681.9 946.327 682.288 945.29C683.036 943.287 682.387 940.347 682.142 938.262C687.934 939.865 705.498 945.212 710.4 942.566C711.661 941.885 712.141 941.225 712.391 939.836C712.802 937.554 711.628 934.393 710.993 932.197C714.551 933.325 722.245 936.473 725.768 934.372C726.886 933.706 727.392 932.7 727.531 931.449C728.074 926.567 722.578 918.901 719.837 915.004C731.164 916.574 766.858 919.893 773.636 928.701C774.318 929.586 774.451 930.294 774.451 931.381C773.248 934.285 770.365 935.542 767.604 936.682C747.223 945.093 704.868 947.795 681.94 949.65C599.163 956.427 516.058 958.288 433.061 955.225C394.796 953.874 356.908 951.899 318.809 947.903C301.445 946.082 273.457 943.633 257.891 937.115C255.388 936.066 250.619 934.164 249.485 931.56C249.054 930.569 249.365 929.755 249.882 928.872C254.152 921.581 286.161 917.348 294.963 916.314C297.442 916.023 299.956 915.837 302.399 915.324C299.668 918.82 294.508 926.471 294.581 930.966C294.598 932.048 295.125 933.116 296.019 933.738C299.635 936.248 307.176 933.932 311.248 933.135C310.769 935.113 309.507 938.702 309.975 940.666C310.162 941.451 310.358 941.866 311.066 942.252C316.074 944.977 335.161 940.096 340.608 938.417C340.09 940.872 339.388 943.39 340.249 945.823C341.587 947.297 343.275 947.441 345.163 947.51C353.938 947.831 385.226 940.376 393.692 936.423C395.645 935.512 397.288 933.893 398.873 932.46C399.291 932.432 399.708 932.399 400.124 932.361C407.323 931.688 426.524 927.576 431.088 921.78C434.04 918.033 432.844 911.713 432.377 907.376Z"/>
	<path fill="#FEFEFE" d="M433.261 784.992C453.652 788.666 473.632 790.187 494.274 791.723C494.362 799.444 494.363 807.167 494.274 814.889L498.115 817.167C498.229 819.541 497.958 823.469 498.997 825.521L501.085 826.376C502.471 830.324 502.258 839.179 503.156 843.986C507.305 866.192 521.87 883.981 542.107 893.635C557.417 900.939 574.4 903.202 591.231 902.543L590.271 907.477C577.945 907.383 565.588 906.661 553.257 906.396C533.103 906 512.944 905.885 492.786 906.051C481.585 906.077 470.384 906.267 459.188 906.621C450.265 906.932 441.306 907.57 432.377 907.376C430.702 900.759 426.835 895.117 425.061 888.66C423.937 884.57 424.538 879.999 423.174 876.028C422.262 873.373 420.647 870.94 419.432 868.417C417.027 863.418 415.824 857.015 415.466 851.501C415.161 846.803 415.103 841.964 415.394 837.264C415.551 834.736 416.713 830.518 416.362 828.179C416.241 827.37 415.686 826.687 415.233 826.055C414.222 824.647 414.388 823.605 414.701 821.981C417.036 809.839 426.55 795.224 433.261 784.992Z"/>
	<path fill="#A6CD3B" d="M428.226 247.002C484.166 237.75 541.249 237.789 597.176 247.116C601.766 247.976 606.351 248.866 610.93 249.785C607.698 254.492 605.071 258.465 606.194 264.492C607.239 270.102 611.136 275.585 615.844 278.784C616.377 279.146 616.916 279.444 617.485 279.745C617.545 278.127 617.814 277.684 618.768 276.466C626.689 286.954 634.979 292.653 648.005 295.117C647.665 296.834 647.141 298.025 646.283 299.544L645.751 299.935C646.594 300.946 647.264 301.534 648.538 301.945C653.59 303.528 659.066 303.022 663.743 300.54C667.159 298.69 669.734 296.049 670.771 292.278C670.475 289.648 671.105 286.614 671.377 283.974C671.791 281.566 672.151 279.135 672.63 276.74C706.034 301.347 717.684 331.83 723.673 371.406C726.636 390.989 727.795 411.765 726.399 431.517C726.54 435.835 725.815 440.462 725.222 444.747C722.25 466.23 714.479 488.768 699.359 504.829C691.828 512.829 682.832 520.016 673.197 525.321C634.599 546.57 570.806 552.101 527.25 553.174C478.295 554.38 381.463 549.015 341.083 520.097C334.455 515.309 328.692 510.138 323.098 504.179C321.133 502.249 319.409 500.08 317.775 497.867C298.264 471.445 295.378 438.225 296.279 406.509C296.648 393.526 297.534 380.716 299.493 367.869C303.885 339.071 314.139 310.203 335.171 289.199C339.692 284.685 344.977 280.757 350.117 276.98L351.573 285.441C351.786 287.836 352.192 290.359 352.152 292.756C352.783 295.333 353.82 297.668 356.147 299.157C360.683 302.06 366.973 303.978 372.298 302.531C374.094 302.043 376.021 301.25 376.955 299.578C372.893 298.72 369.439 301.568 364.945 300.147C362.205 299.281 357.549 297.376 356.22 294.763C356.449 294.62 356.642 294.392 356.905 294.335C359.782 293.715 370.305 296.082 377.276 294.658C387.928 292.482 396.718 286.856 402.692 277.755C403.549 278.181 404.646 278.575 405.364 279.198C406.189 279.039 406.743 278.86 407.484 278.413C412.196 275.573 415.42 269.319 416.222 264.024C417.093 258.28 414.791 254.345 411.577 249.913C417.114 248.776 422.606 247.647 428.226 247.002Z"/>
	<path fill="#779929" d="M672.63 276.74C706.034 301.347 717.684 331.83 723.673 371.406C726.636 390.989 727.795 411.765 726.399 431.517C726.54 435.835 725.815 440.462 725.222 444.747C722.25 466.23 714.479 488.768 699.359 504.829C691.828 512.829 682.832 520.016 673.197 525.321C634.599 546.57 570.806 552.101 527.25 553.174C478.295 554.38 381.463 549.015 341.083 520.097C334.455 515.309 328.692 510.138 323.098 504.179C321.133 502.249 319.409 500.08 317.775 497.867C298.264 471.445 295.378 438.225 296.279 406.509C296.648 393.526 297.534 380.716 299.493 367.869C303.885 339.071 314.139 310.203 335.171 289.199C339.692 284.685 344.977 280.757 350.117 276.98L351.573 285.441C351.786 287.836 352.192 290.359 352.152 292.756C347.74 292.359 342.644 295.832 339.352 298.54C318.008 316.103 310.451 363.331 307.741 389.91C305.039 416.413 304.438 442.693 314.997 467.749C317.576 473.869 320.24 479.476 324.492 484.622C352.878 518.981 421.437 529.702 463.835 533.754C487.233 536.072 510.737 537.144 534.249 536.965C574.278 536.33 630.565 529.939 666.28 512.013C673.362 508.459 680.044 503.779 686.121 498.713C704.575 483.333 714.257 460.119 716.271 436.499C719.216 401.953 714.159 364.401 702.939 331.657C699.396 321.317 696.247 312.505 689.074 304.045C684.264 298.373 678.508 292.945 670.771 292.278C670.475 289.648 671.105 286.614 671.377 283.974C671.791 281.566 672.151 279.135 672.63 276.74Z"/>
	<defs>
		<linearGradient id="gradient_0" gradientUnits="userSpaceOnUse" x1="356.8855" y1="397.2952" x2="294.56583" y2="378.58521">
			<stop offset="0" stop-color="#8AA52E"/>
			<stop offset="1" stop-color="#A7CD3B"/>
		</linearGradient>
	</defs>
	<path fill="url(#gradient_0)" d="M350.117 276.98L351.573 285.441C346.056 285.354 340.509 291.387 336.673 295.084C317.21 313.843 311.088 343.943 306.367 369.44C302.899 388.165 300.51 406.428 300.343 425.51C300.108 452.292 307.743 483.334 326.445 503.295C325.289 503.864 324.432 504.42 323.098 504.179C321.133 502.249 319.409 500.08 317.775 497.867C298.264 471.445 295.378 438.225 296.279 406.509C296.648 393.526 297.534 380.716 299.493 367.869C303.885 339.071 314.139 310.203 335.171 289.199C339.692 284.685 344.977 280.757 350.117 276.98Z"/>
	<path fill="#A6CD3B" d="M672.63 276.74C706.034 301.347 717.684 331.83 723.673 371.406C726.636 390.989 727.795 411.765 726.399 431.517C725.109 430.684 725.136 429.689 725.035 428.268C724.543 421.291 725.351 414.439 724.458 407.372C723.718 401.512 721.735 395.959 720.609 390.187C716.165 367.418 710.523 332.524 699.458 312.55C694.339 303.309 688.296 297.233 680.446 290.331C677.692 287.909 674.983 285.01 671.377 283.974C671.791 281.566 672.151 279.135 672.63 276.74Z"/>
	<path fill="#8FA935" d="M323.098 504.179C324.432 504.42 325.289 503.864 326.445 503.295C330.589 506.755 342.31 515.86 345.24 519.348L344.925 519.79L341.083 520.097C334.455 515.309 328.692 510.138 323.098 504.179Z"/>
	<path fill="#F6E34D" d="M428.226 247.002C484.166 237.75 541.249 237.789 597.176 247.116C597.092 247.572 596.862 248.054 596.699 248.491C591.035 251.454 561.161 247.362 552.601 246.742C530.635 245.149 508.029 243.627 486.015 245.167C476.09 245.861 466.079 246.849 456.191 247.961C449.747 248.686 443.182 249.753 436.696 249.84C433.163 249.887 430.835 249.52 428.226 247.002Z"/>
	<path d="M647.931 337.411C648.16 337.559 648.412 337.676 648.616 337.856C649.612 338.731 649.827 339.962 649.903 341.176C648.333 344.687 641.871 346.934 638.523 348.614C647.385 350.334 655.19 353.205 662.061 359.269C672.575 368.547 678.602 383.007 679.312 396.865C680.013 410.562 675.489 425.039 666.094 435.193C657.309 444.688 646.688 449.208 633.895 449.655C629.983 449.515 626.116 448.764 622.436 447.43C610.581 443.252 602.145 434.567 596.808 423.332C590.277 409.583 590.041 393.381 595.275 379.162C601.856 361.286 612.619 355.685 628.476 347.378C634.913 344.006 641.316 340.419 647.931 337.411Z"/>
	<path fill="#F8008E" d="M620.859 376.55C620.765 374.51 620.574 372.299 621.293 370.346C622.041 368.31 623.272 366.644 625.366 365.873C628.037 364.888 630.807 366.174 633.148 367.362C635.25 369.053 635.873 370.158 636.166 372.84C637.142 381.776 636.416 391.422 636.368 400.455C636.326 408.23 636.855 416.478 636.03 424.194C635.852 425.862 635.716 427.645 634.658 429.024C633.293 430.804 630.76 431.875 628.58 432.118C626.804 432.315 625.032 431.864 623.692 430.651C620.684 427.929 620.545 423.166 620.531 419.411C620.478 405.233 620.193 390.702 620.859 376.55Z"/>
	<path fill="#FC64B7" d="M620.859 376.55C620.765 374.51 620.574 372.299 621.293 370.346C622.041 368.31 623.272 366.644 625.366 365.873C628.037 364.888 630.807 366.174 633.148 367.362C632.805 370.449 632.534 373.683 630.027 375.863C628.343 377.327 625.924 377.714 623.766 377.354C622.783 377.19 621.805 376.858 620.859 376.55Z"/>
	<path d="M375.646 337.175C381.508 339.373 406.328 352.978 411.173 356.56C422.283 364.855 429.592 377.269 431.456 391.008C433.528 405.324 430.172 420.513 421.435 432.15C413.758 442.374 403.857 447.839 391.344 449.575C382.609 449.979 374.758 448.03 367.279 443.462C356.1 436.633 348.848 425.364 345.913 412.717C342.485 397.745 345.096 382.026 353.179 368.966C360.859 356.805 370.934 351.75 384.562 348.662C381.084 346.778 375.498 344.964 374.004 341.123C374.133 339.281 374.667 338.705 375.646 337.175Z"/>
	<path fill="#F8008E" d="M389.459 368.164C391.718 366.378 393.637 365.174 396.62 365.405C398.396 365.542 399.829 366.39 400.953 367.752C403.38 370.696 403.215 373.596 403.165 377.212C403.15 391.845 403.651 406.634 403.147 421.248C403.036 424.467 402.643 428.235 400.007 430.443C398.318 431.859 395.794 432.393 393.637 432.087C391.041 431.719 389.644 429.612 388.183 427.674C388.12 427.354 388.053 427.035 387.996 426.714C386.641 419.077 386.575 380.448 387.726 372.12C387.941 370.566 388.579 369.437 389.459 368.164Z"/>
	<path fill="#FC64B7" d="M389.459 368.164C391.718 366.378 393.637 365.174 396.62 365.405C398.396 365.542 399.829 366.39 400.953 367.752C403.38 370.696 403.215 373.596 403.165 377.212C400.157 377.633 396.541 378.357 393.769 376.702C390.765 374.907 390.134 371.299 389.459 368.164Z"/>
	<path d="M417.463 473.723C418.246 474.026 418.762 474.361 419.449 474.831C420.908 477.769 422.327 480.185 424.764 482.448C428.751 486.149 435.065 488.041 440.276 489.213C456.556 492.877 472.847 491.319 489.022 487.903C497.545 486.103 506.125 483.898 514.909 484.307C529.211 484.974 543.557 495.882 555.942 494.121C571.031 491.975 580.043 478.064 598.32 477.155C602.5 476.947 611.429 477.188 614.412 480.428C615.321 481.415 615.758 482.634 615.617 483.975C615.448 485.583 614.333 486.479 613.211 487.475C610.86 486.373 608.848 484.427 606.766 482.876C583.051 480.107 574.977 497.443 555.427 499.772C541.755 501.401 528.873 490.5 515.123 489.621C507.314 489.121 499.131 491.684 491.499 493.157C480.012 495.374 468.85 497.109 457.094 496.835C444.076 496.531 427.077 493.909 417.771 483.763C416.193 482.042 414.917 479.921 415.073 477.507C415.189 475.715 416.227 474.843 417.463 473.723Z"/>
	<path d="M482.411 437.253C485.098 436.351 488.062 436.992 490.137 438.922C492.212 440.852 493.064 443.762 492.359 446.506C491.654 449.251 489.504 451.389 486.756 452.08C482.728 453.092 478.62 450.741 477.452 446.756C476.284 442.77 478.474 438.574 482.411 437.253Z"/>
	<path d="M536.926 437.416C539.548 436.491 542.465 437.056 544.552 438.893C546.638 440.73 547.569 443.552 546.983 446.27C546.398 448.989 544.389 451.178 541.731 451.993C537.737 453.218 533.497 451.025 532.189 447.058C530.881 443.09 532.986 438.806 536.926 437.416Z"/>
	<path d="M423.156 255.695C423.661 255.931 424.041 256.085 424.499 256.369C426.042 257.323 427.074 259.279 427.488 261.002C428.545 265.392 426.803 269.731 424.535 273.401L423.617 273.682C423.134 272.439 424.41 270.435 424.797 269.093C426.115 264.518 425.362 259.843 423.156 255.695Z"/>
	<path d="M598.278 255.856C598.978 258.58 596.634 262.62 596.518 265.558C596.432 267.748 597.618 270.679 598.218 272.805L597.673 273.669C595.631 271.18 594.393 268.242 594.378 264.986C594.362 261.358 595.815 258.439 598.278 255.856Z"/>
	<path d="M383.526 543.836C396.987 547.193 410.24 549.992 423.937 552.156L425.883 556.185C459.674 576.535 535.59 574.823 573.087 565.477C580.678 563.585 589.814 561.118 596.282 556.53C596.878 555.265 597.5 554.01 598.004 552.705C611.83 550.013 625.575 547.573 639.194 543.932C643.068 551.587 646.844 559.191 649.739 567.278C655.346 584.344 659.562 600.991 662.142 618.783C657.229 618.172 649.871 616.372 645.125 617.682C643.575 622.259 645.786 647.043 645.908 653.566C646.02 659.567 645.55 665.717 645.997 671.679C651.721 672.753 657.731 673.231 663.548 673.545C663.106 703.616 660.01 741.185 637.301 763.275C634.926 765.586 631.028 768.984 627.646 769.31C622.305 772.408 615.821 773.482 609.907 775.071C604.06 776.641 598.181 778.408 592.249 779.613C553.674 787.453 510.928 787.529 471.826 784.743C461.882 784.034 447.393 783.151 438.005 780.777C437.89 780.748 437.788 780.683 437.679 780.637L433.743 780.013C423.27 778.235 405.566 775.045 396.447 770.387C392.007 768.761 387.989 766.016 384.516 762.84C361.418 741.715 359.93 702.924 358.473 673.64C364.646 673.094 370.837 672.645 376.953 671.62C376.923 662.644 376.698 653.647 377.053 644.676C377.343 637.373 378.204 630.049 378.327 622.748C378.354 621.177 378.433 619.624 377.861 618.133C374.54 615.851 364.257 618.649 360.219 619.366C363.804 601.349 367.293 584.119 373.013 566.61C376.167 558.772 379.317 551.189 383.526 543.836Z"/>
	<path fill="#A6CD3B" d="M373.013 566.61C385.799 571.392 398.749 573.766 412.109 576.248C417.058 577.167 423.283 577.43 427.886 579.299C427.992 579.653 428.158 580.004 428.16 580.373C424.966 580.674 421.136 580.644 418.265 582.195C414.398 584.284 401.179 599.086 397.901 603.118C396.734 604.553 395.738 605.973 395.294 607.794C394.09 612.729 394.219 618.379 393.965 623.461C392.705 648.677 393.07 674.518 395.995 699.604C396.202 701.377 396.5 703.433 397.418 704.994C400.062 709.491 413.445 724.49 417.58 727.705C421.986 731.13 435.275 731.612 441.001 732.229C491.419 737.662 546.664 737.858 596.892 730.452C599.216 730.109 601.777 729.61 603.798 728.364C608.243 725.625 622.204 709.815 625.647 705.087C625.802 704.87 625.956 704.652 626.109 704.433C627.569 686.539 629.248 668.719 629.395 650.748C629.519 635.68 628.396 620.643 627.324 605.622C619.709 597.644 612.341 588.631 604.102 581.376C601.102 581.002 598.117 580.646 595.1 580.438C595.261 579.75 595.481 579.7 595.985 579.234C600.586 578.977 605.293 577.809 609.823 576.964C623.402 574.431 636.534 571.366 649.739 567.278C655.346 584.344 659.562 600.991 662.142 618.783C657.229 618.172 649.871 616.372 645.125 617.682C643.575 622.259 645.786 647.043 645.908 653.566C646.02 659.567 645.55 665.717 645.997 671.679C651.721 672.753 657.731 673.231 663.548 673.545C663.106 703.616 660.01 741.185 637.301 763.275C634.926 765.586 631.028 768.984 627.646 769.31C622.305 772.408 615.821 773.482 609.907 775.071C604.06 776.641 598.181 778.408 592.249 779.613C553.674 787.453 510.928 787.529 471.826 784.743C461.882 784.034 447.393 783.151 438.005 780.777C437.89 780.748 437.788 780.683 437.679 780.637L433.743 780.013C423.27 778.235 405.566 775.045 396.447 770.387C392.007 768.761 387.989 766.016 384.516 762.84C361.418 741.715 359.93 702.924 358.473 673.64C364.646 673.094 370.837 672.645 376.953 671.62C376.923 662.644 376.698 653.647 377.053 644.676C377.343 637.373 378.204 630.049 378.327 622.748C378.354 621.177 378.433 619.624 377.861 618.133C374.54 615.851 364.257 618.649 360.219 619.366C363.804 601.349 367.293 584.119 373.013 566.61Z"/>
	<defs>
		<linearGradient id="gradient_1" gradientUnits="userSpaceOnUse" x1="517.4967" y1="776.16846" x2="517.51508" y2="785.00934">
			<stop offset="0" stop-color="#A2BE38"/>
			<stop offset="1" stop-color="#C7E14C"/>
		</linearGradient>
	</defs>
	<path fill="url(#gradient_1)" d="M437.679 780.637C436.968 780.071 436.143 779.604 435.38 779.108L436.141 778.339C434.221 778.183 432.353 778.102 430.519 777.46L430.518 776.978C435.092 775.38 441.251 778.252 445.769 778.815C461.609 780.792 478.045 781.714 493.991 782.325C501.341 782.607 508.623 782.342 515.972 782.319C530.484 782.274 544.659 782.182 559.108 780.584C563.234 780.127 567.448 779.774 571.53 779.029C580.368 777.413 594.658 774.001 603.467 774.789C603.286 775.537 603.353 775.154 603.267 775.94C608.031 774.667 624.05 769.222 627.646 769.31C622.305 772.408 615.821 773.482 609.907 775.071C604.06 776.641 598.181 778.408 592.249 779.613C553.674 787.453 510.928 787.529 471.826 784.743C461.882 784.034 447.393 783.151 438.005 780.777C437.89 780.748 437.788 780.683 437.679 780.637Z"/>
	<path fill="#779929" d="M364.325 704.697C373.409 725.767 383.974 751.23 406.862 760.307C416.826 764.259 427.763 765.891 438.264 767.86C483.94 776.798 530.76 778.294 576.912 772.29C591.654 770.231 606.811 767.417 620.507 761.383C636.649 754.27 650.427 726.666 656.527 710.791C656.699 710.346 656.865 709.898 657.022 709.447L657.396 709.932C655.984 716.359 654.85 723.398 652.799 729.634C648.817 741.743 637.507 760.981 626.259 767.789C626.09 767.891 625.91 767.973 625.736 768.065L625.682 767.515C630.156 763.017 635.529 758.945 639.452 753.908C643.258 749.019 654.749 728.11 654.013 722.231C653.973 721.914 653.884 721.605 653.819 721.292C652.982 721.455 653.08 721.624 652.604 722.333C649.743 726.598 647.829 731.545 645.2 735.966C641.679 741.885 632.582 754.562 627.185 758.604C620.13 763.889 603.263 768.225 594.364 770.018C546.591 779.649 495.374 778.31 447.468 770.388C444.486 769.895 441.68 768.881 438.731 768.361C424.886 765.921 407.998 763.805 396.095 755.57C388.388 750.237 382.681 741.008 377.265 733.513C374.677 729.932 372.731 725.475 371.124 721.362L371.11 721.361L370.096 720.559C369.179 721.455 368.816 722.127 368.828 723.496C368.87 728.169 372.115 733.278 373.275 737.818C373.771 737.984 374.27 738.147 374.773 738.291C374.871 739.153 374.88 739.796 374.812 740.661C374.569 743.752 382.013 754.14 384.382 756.626C387.75 760.16 395.441 767.139 399.888 769.158L399.715 769.64L397.985 769.114L397.725 769.634L399.832 770.697C406.674 774.218 430.374 777.152 433.743 780.013C423.27 778.235 405.566 775.045 396.447 770.387L397.096 769.259C396.279 766.893 384.262 757.692 381.477 754.376C372.599 743.806 364.644 718.397 364.325 704.697Z"/>
	<path fill="#779929" d="M383.526 543.836C396.987 547.193 410.24 549.992 423.937 552.156L425.883 556.185C459.674 576.535 535.59 574.823 573.087 565.477C580.678 563.585 589.814 561.118 596.282 556.53C596.878 555.265 597.5 554.01 598.004 552.705C611.83 550.013 625.575 547.573 639.194 543.932C643.068 551.587 646.844 559.191 649.739 567.278C636.534 571.366 623.402 574.431 609.823 576.964C605.293 577.809 600.586 578.977 595.985 579.234C595.481 579.7 595.261 579.75 595.1 580.438C588.528 580.921 580.943 579.591 574.33 579.173C563.537 578.541 552.731 578.158 541.92 578.025C514.328 577.45 486.725 577.658 459.145 578.648C448.8 579.037 438.495 579.868 428.16 580.373C428.158 580.004 427.992 579.653 427.886 579.299C423.283 577.43 417.058 577.167 412.109 576.248C398.749 573.766 385.799 571.392 373.013 566.61C376.167 558.772 379.317 551.189 383.526 543.836Z"/>
	<path fill="#2B333F" d="M476.867 582.217C488.832 581.464 501.141 581.779 513.133 581.833C542.875 581.966 572.404 583.198 602.098 584.676C608.577 589.604 617.23 600.948 623.406 607.264C627.12 638.43 626.277 671.695 622.709 702.853C615.839 709.947 608.19 720.898 600.183 726.254C582.095 728.649 563.91 730.244 545.682 731.036C508.611 734.135 470.295 731.517 433.361 727.761C429.69 727.388 425.278 727.142 421.886 725.571C417.218 723.409 406.408 710.143 402.782 705.622C401.786 704.381 400.746 702.991 400.273 701.451C398.716 696.373 398.794 690.083 398.409 684.804C396.55 659.318 396.215 633.083 399.203 607.657C406.172 600.026 413.112 592.279 420.421 584.974C438.856 582.364 458.252 582.832 476.867 582.217Z"/>
	<path d="M439.344 603.276C454.349 601.601 467.891 612.358 469.654 627.353C471.417 642.348 460.739 655.953 445.755 657.803C430.646 659.669 416.904 648.884 415.126 633.764C413.348 618.644 424.214 604.966 439.344 603.276Z"/>
	<path fill="#FEAD33" d="M437.838 609.655C442.204 609.342 446.7 608.717 450.398 611.63C452.869 613.578 453.929 616.571 454.124 619.629C454.494 625.166 452.587 630.614 448.845 634.712C445.021 638.888 440.837 640.741 435.255 641.028C432.767 641.009 429.995 641.112 427.551 640.673C425.717 640.343 423.674 639.151 422.649 637.578C419.932 633.406 421.698 626.168 422.81 621.656C424.976 622.895 426.883 624.11 429.464 623.852C433.064 623.492 435.413 620.533 437.466 617.868C437.545 615.58 436.575 611.405 437.838 609.655Z"/>
	<path fill="#FEAD33" d="M442.31 645.487C442.25 646.115 442.542 646.277 442.89 646.78C443.672 646.771 444.37 646.714 445.107 646.422C450.242 644.391 455.725 639.782 457.741 634.619C458.499 632.677 459.355 629.672 458.461 627.71L456.602 627.877C455.749 626.742 456.335 616.422 456.068 614.113C456.803 614.725 457.526 615.352 458.236 615.992C462.31 619.686 464.596 624.634 464.753 630.137C464.95 635.792 462.79 641.275 458.79 645.278C454.638 649.475 448.237 652.522 442.257 652.325C435.64 652.107 430.59 647.989 426.347 643.325C431.737 643.648 436.715 643.914 442.003 642.686L442.31 645.487Z"/>
	<path fill="#FBD58F" d="M442.003 642.686C450.148 638.43 450.683 636.13 456.827 629.762C453.202 639.795 449.744 639.656 442.31 645.487L442.003 642.686Z"/>
	<path d="M575.74 604.124C590.688 601.844 604.639 612.158 606.842 627.118C609.045 642.078 598.66 655.976 583.689 658.102C568.826 660.213 555.05 649.919 552.863 635.067C550.676 620.215 560.899 606.387 575.74 604.124Z"/>
	<path fill="#A6CD3B" d="M576.379 607.129C589.57 605.076 601.926 614.109 603.973 627.301C606.021 640.494 596.983 652.846 583.79 654.888C570.604 656.928 558.26 647.897 556.215 634.713C554.169 621.528 563.195 609.181 576.379 607.129Z"/>
	<path d="M565.278 621.601C568.718 620.53 572.469 621.434 575.043 623.956C577.545 626.407 578.548 630.008 577.673 633.4C576.797 636.792 574.177 639.458 570.801 640.393C565.646 641.819 560.3 638.847 558.791 633.715C557.283 628.583 560.171 623.19 565.278 621.601Z"/>
	<path fill="#FEAD33" d="M566.204 624.294C569.854 623.167 573.731 625.181 574.908 628.814C576.084 632.448 574.124 636.352 570.507 637.579C568.123 638.387 565.488 637.85 563.611 636.172C561.734 634.494 560.906 631.936 561.443 629.477C561.98 627.017 563.799 625.037 566.204 624.294Z"/>
	<path d="M588.642 621.836C593.77 620.142 599.299 622.932 600.983 628.063C602.666 633.194 599.864 638.718 594.729 640.39C589.61 642.058 584.107 639.266 582.428 634.15C580.75 629.034 583.53 623.525 588.642 621.836Z"/>
	<path fill="#FEAD33" d="M590.887 624.465C594.497 623.893 597.897 626.323 598.527 629.922C599.157 633.522 596.783 636.961 593.194 637.649C590.82 638.105 588.385 637.245 586.824 635.399C585.262 633.554 584.817 631.01 585.659 628.744C586.502 626.478 588.5 624.842 590.887 624.465Z"/>
	<path d="M518.04 697.162C525.944 696.885 534.123 696.94 542.019 697.338C542.498 701.074 543.221 706.635 541.969 710.172C536.87 712.158 524.706 710.985 518.977 710.752C518.903 710.708 518.823 710.674 518.756 710.621C517.662 709.75 517.612 709.724 517.508 708.385C520.239 706.468 534.821 707.446 538.96 707.468L538.988 700.087C532.35 701.002 524.791 701.15 518.089 700.949L517.494 700.269C517.419 699.016 517.574 698.325 518.04 697.162Z"/>
	<path d="M482.745 697.203C490.304 697.079 498.48 696.485 505.943 697.716C506.146 701.981 506.324 706.139 505.937 710.404C497.583 710.996 489.203 711.12 480.835 710.777C480.876 709.501 480.899 708.635 481.413 707.441C486.405 706.5 497.257 707.443 502.858 707.459L502.755 700.504C498.112 700.523 484.998 701.76 481.394 700.397L480.955 699.416C481.479 698.095 481.571 698.008 482.745 697.203Z"/>
	<path fill="#FEFEFE" d="M588.313 785.674L589.251 785.756C589.515 786.063 589.772 786.375 590.022 786.693C594.712 792.668 609.036 818.922 608.117 825.949C607.67 826.237 607.214 826.512 606.786 826.826C605.043 828.106 606.201 831.16 606.441 833.05C607.745 843.301 607.628 854.918 603.862 864.678C602.211 868.957 599.954 873.27 598.841 877.721C597.916 881.423 597.835 885.517 597.187 889.314C580.473 891.874 560.133 888.638 545.108 880.97C535.062 875.893 526.294 866.622 521.11 856.704C518.419 851.555 512.034 832.641 514.516 827.4C515.253 825.844 517.009 825.618 518.489 825.075C518.463 823.223 518.141 820.649 518.634 818.877C519.157 816.999 520.494 816.481 522.039 815.522C524.518 810.608 523.054 797.48 522.961 791.649C545.053 790.963 566.469 789.111 588.313 785.674Z"/>
	<path fill="#A6CD3B" d="M391.301 777.088C402.926 780.209 414.536 783.637 426.229 786.472C420.736 798.483 410.884 811.543 409.676 824.82C407.091 824.337 404.72 823.958 402.07 824.033C404.871 826.441 408.62 827.704 411.844 829.477C408.565 843.647 411.798 861.179 417.247 874.447C420.157 879.023 419.75 883.788 420.14 889.019L420.341 889.575C423.357 897.691 427.584 904.276 428.599 913.117C423.042 914.722 413.831 918.722 408.47 919.279C399.454 924.67 395.015 932.365 384.717 934.575C384.333 932.913 384.012 931.202 383.456 929.59C381.921 927.617 380.289 925.722 378.565 923.911C374.616 919.835 368.856 916.043 363.01 916.132C357.304 916.218 353.574 919.96 349.803 923.72C348.78 921.958 347.724 920.105 346.491 918.479C338.401 907.804 333.434 915.43 326.978 914.545L326.63 913.777C328.16 907.025 335.563 908.604 338.956 904.22L338.335 903.782C333.302 903.855 330.203 906.443 326.62 909.576C324.442 908.085 322.354 906.356 319.587 906.493C319.27 906.509 318.954 906.537 318.638 906.559L318.337 906.231C318.752 905.265 319.204 904.636 319.997 903.964C330.744 894.854 363.368 882.563 377.304 883.226C385.807 883.63 393.768 886.843 402.14 887.294L402.822 887.325C400.231 886.163 397.633 885.015 395.03 883.881C395.711 883.015 396.394 882.219 396.813 881.187C396.562 880.898 396.314 880.604 396.042 880.334C389.402 873.734 380.074 871.548 371.018 871.577C371.13 865.367 370.032 859.155 369.431 852.984C368.587 844.315 368.214 835.763 368.436 827.054C368.533 823.327 369.742 820.394 371.205 817.039C376.749 806.608 381.237 795.604 386.766 785.14C388.27 782.456 389.729 779.732 391.301 777.088Z"/>
	<path fill="#779929" d="M391.301 777.088C402.926 780.209 414.536 783.637 426.229 786.472C420.736 798.483 410.884 811.543 409.676 824.82C407.091 824.337 404.72 823.958 402.07 824.033C404.419 815.95 411.173 808.874 413.113 801.138C413.597 799.208 413.45 797.42 412.323 795.733C408.57 790.117 393.108 786.289 386.766 785.14C388.27 782.456 389.729 779.732 391.301 777.088Z"/>
	<path fill="#779929" d="M402.07 824.033C404.871 826.441 408.62 827.704 411.844 829.477C408.565 843.647 411.798 861.179 417.247 874.447C414.835 873.437 412.092 870.652 410.408 868.65C400.903 857.347 400.656 837.865 402.07 824.033Z"/>
	<path fill="#779929" d="M420.14 889.019L420.341 889.575C423.357 897.691 427.584 904.276 428.599 913.117C423.042 914.722 413.831 918.722 408.47 919.279C399.454 924.67 395.015 932.365 384.717 934.575C384.333 932.913 384.012 931.202 383.456 929.59C391.372 927.109 396.624 921.296 403.752 917.429C407.171 915.628 410.593 913.774 413.801 911.614C422.157 905.987 418.419 897.74 420.036 889.498C420.068 889.338 420.105 889.179 420.14 889.019Z"/>
	<path fill="#F6E34D" d="M371.205 817.039C373.453 818.968 374.127 820.178 374.317 823.157C374.417 824.712 374.061 826.368 372.786 827.41C371.797 828.22 371.123 828.029 369.999 827.67C369.567 827.532 368.874 827.235 368.436 827.054C368.533 823.327 369.742 820.394 371.205 817.039Z"/>
	<path fill="#A6CD3B" d="M596.288 786.818C607.831 783.297 619.534 780.347 631.126 776.996C632.657 779.597 634.03 782.318 635.464 784.975C640.806 795.188 646.072 805.749 650.364 816.447C652.449 820.491 653.287 824.052 653.646 828.556C653.907 836.746 653.45 844.9 652.697 853.054C652.133 859.164 651.223 865.237 651.395 871.385C642.674 872.072 632.422 874.048 626.18 880.825C625.579 882.304 624.9 883.774 624.523 885.325L622.206 886.392L622.19 886.999C628.884 887.01 637.751 883.619 645.235 883.173C655.241 882.577 677.738 889.873 686.767 894.421C693.071 897.597 698.885 901.825 704.741 905.753C701.008 906.592 698.28 907.664 695.178 910.012C692.871 906.882 689.224 904.321 685.281 903.799C684.462 903.691 683.743 903.76 682.932 903.876L682.76 904.362C686.201 907.361 694.433 908.327 695.173 913.378C695.2 913.565 695.187 913.756 695.194 913.945C686.782 917.079 683.8 904.801 672.68 923.06C668.207 919.236 663.954 915.671 657.652 916.262C649.759 917.002 643.917 923.332 639.281 929.151C638.428 930.909 637.976 932.793 637.456 934.669C628.51 932.349 625.872 926.806 618.654 922.559C611.332 918.253 602.183 915.536 594.13 912.842C594.684 905.118 597.593 899.398 600.834 892.511C603.321 885.836 602.027 880.438 605.715 873.587C606.767 869.404 608.434 865.363 609.481 861.146C611.63 852.492 612.783 838.259 610.872 829.448C614.114 827.904 617.299 826.241 620.546 824.702L620.173 823.385C617.545 823.709 615.357 824.416 612.929 825.405C610.697 811.208 601.583 799.865 596.288 786.818Z"/>
	<path fill="#779929" d="M596.288 786.818C607.831 783.297 619.534 780.347 631.126 776.996C632.657 779.597 634.03 782.318 635.464 784.975C627.72 786.315 614.69 789.625 610.019 796.588C609.079 797.989 608.634 799.555 609.051 801.228C610.535 807.18 617.263 817.183 620.173 823.385C617.545 823.709 615.357 824.416 612.929 825.405C610.697 811.208 601.583 799.865 596.288 786.818Z"/>
	<path fill="#779929" d="M600.834 892.511C600.994 892.775 601.164 893.034 601.316 893.304C603.435 897.069 601.703 902.336 603.684 906.451C604.56 908.268 606.948 909.984 608.56 911.188C610.355 912.528 634.851 928.195 635.768 928.477C636.921 928.831 638.087 929.016 639.281 929.151C638.428 930.909 637.976 932.793 637.456 934.669C628.51 932.349 625.872 926.806 618.654 922.559C611.332 918.253 602.183 915.536 594.13 912.842C594.684 905.118 597.593 899.398 600.834 892.511Z"/>
	<path fill="#779929" d="M610.872 829.448C614.114 827.904 617.299 826.241 620.546 824.702C621.506 838.481 621.209 857.935 611.317 868.855C609.716 870.623 607.659 872.215 605.715 873.587C606.767 869.404 608.434 865.363 609.481 861.146C611.63 852.492 612.783 838.259 610.872 829.448Z"/>
	<path fill="#F6E34D" d="M650.364 816.447C652.449 820.491 653.287 824.052 653.646 828.556C652.776 828.193 651.882 827.851 651.049 827.407C649.575 826.621 648.581 825.207 648.246 823.573C647.729 821.043 648.984 818.469 650.364 816.447Z"/>
	<path fill="#A6CD3B" d="M689.453 569.128C709.742 576.975 727.544 589.368 744.887 602.249C743.753 603.439 742.213 604.757 742.09 606.513C742.055 607.023 742.161 607.298 742.284 607.759C742.991 608.002 743.123 608.215 743.874 607.894C745.054 607.39 745.863 606.486 746.759 605.601C767.188 635.897 788.759 671.641 792.398 708.883L791.706 708.798C786.005 708.067 777.761 703.978 772.281 706.447C769.765 706.419 765.421 705.846 763.13 706.834C761.805 705.913 760.237 705.779 758.684 705.492C753.937 705.344 749.854 706.36 745.308 707.552C748.691 686.251 734.001 655.913 723.505 637.383C725.779 634.767 728.007 632.111 730.188 629.417L732.416 625.613L730.25 625.582C731.005 624.867 731.492 624.081 732.058 623.216L731.34 621.539C729.566 622.76 727.795 623.884 725.907 624.92C723.083 626.902 720.17 628.696 717.223 630.486C708.585 618.916 696.135 609.701 682.88 603.958L684.915 595.686C686.847 586.858 688.534 578.126 689.453 569.128Z"/>
	<path fill="#779929" d="M730.188 629.417C734.709 641.207 741.394 652.236 746.28 663.954C752.241 678.248 754.671 690.82 758.684 705.492C753.937 705.344 749.854 706.36 745.308 707.552C748.691 686.251 734.001 655.913 723.505 637.383C725.779 634.767 728.007 632.111 730.188 629.417Z"/>
	<path fill="#779929" d="M684.915 595.686C694.753 597.231 708.301 608.249 715.354 614.914C718.786 618.158 722.024 622.252 725.907 624.92C723.083 626.902 720.17 628.696 717.223 630.486C708.585 618.916 696.135 609.701 682.88 603.958L684.915 595.686Z"/>
	<path fill="#060B03" d="M731.34 621.539L733.019 621.447C733.855 622.308 733.772 622.263 733.77 623.476C733.394 624.152 733.015 625.134 732.416 625.613L730.25 625.582C731.005 624.867 731.492 624.081 732.058 623.216L731.34 621.539Z"/>
	<path fill="#A6CD3B" d="M230.323 709.275C231.254 687.047 245.524 653.98 256.933 634.817C259.098 631.182 274.312 607.413 274.77 607.317C276.267 607.004 277.418 608.207 279.304 607.727C280.206 606.636 280.436 606.578 280.459 605.188C279.588 604.415 278.857 603.767 278.195 602.798C278.231 602.647 278.244 602.49 278.302 602.346C279.095 600.374 283.223 597.91 284.988 596.608C290.825 592.303 296.734 587.77 302.973 584.064C312.376 578.48 322.401 574.041 332.173 569.158C333.844 577.662 335.366 586.145 337.384 594.579C338.218 597.912 338.895 601.258 339.545 604.631C326.405 609.481 313.399 619.157 305.257 630.612L296.742 624.59C294.902 623.351 293.086 622.289 291.09 621.321C290.045 620.906 289.29 621.047 288.194 621.118C288.696 624.329 290.236 626.349 292.255 628.813C294.609 631.522 296.917 634.298 299.484 636.809C286.648 654.816 276.758 685.563 276.529 707.619C271.215 706.393 266.225 705.197 260.728 705.223L258.922 706.55C255.86 706.506 252.654 706.242 249.63 706.767C249.368 706.585 249.122 706.379 248.844 706.221C244.79 703.913 234.663 707.946 230.323 709.275Z"/>
	<path fill="#779929" d="M292.255 628.813C294.609 631.522 296.917 634.298 299.484 636.809C286.648 654.816 276.758 685.563 276.529 707.619C271.215 706.393 266.225 705.197 260.728 705.223C262.099 705.032 263.465 704.814 264.826 704.566C266.258 700.572 266.616 695.88 267.397 691.699C268.58 685.358 270.301 678.737 272.527 672.672C275.657 664.291 279.268 656.097 283.34 648.13C285.996 643.028 289.582 637.762 291.595 632.399C292.025 631.256 292.152 630.021 292.255 628.813Z"/>
	<path fill="#779929" d="M337.384 594.579C338.218 597.912 338.895 601.258 339.545 604.631C326.405 609.481 313.399 619.157 305.257 630.612L296.742 624.59C303.361 617.839 310.706 610.392 318.67 605.199C321.846 603.128 325.452 601.523 328.813 599.751C331.367 598.405 335.589 596.747 337.384 594.579Z"/>
	<path fill="#A6CD3B" d="M229.388 717.403C239.071 714.852 266.44 711.811 275.85 716.136C278.323 717.272 292.137 733.724 293.8 736.656C295.636 739.893 295.492 744.372 296.968 747.877C299.509 753.915 304.324 759.057 306.798 765.2L306.278 766.25C305.234 766.743 304.688 766.735 303.555 766.47C295.01 764.464 291.489 757.437 287.336 750.635C286.408 750.513 285.511 750.403 284.575 750.362C283.403 750.319 282.232 750.258 281.062 750.179C280.792 748.542 280.916 746.727 280.529 745.174C280.48 744.978 280.415 744.787 280.358 744.594L278.904 746.548C279.403 756.027 274.722 764.559 274.161 773.949C273.523 784.616 279.166 795.849 281.213 806.274C274.24 802.695 267.613 795.619 264.27 788.53C262.385 785.045 260.598 781.391 259.361 777.62C258.488 774.957 258.352 771.187 256.922 768.863C256.488 768.157 256.561 768.371 255.663 768.169C254.693 769 254.451 769.74 254.029 770.912C253.646 771.978 253.543 772.403 252.783 773.27C251.323 772.049 249.828 770.894 248.306 769.753L247.32 769.909C248.485 772.928 249.489 773.648 252.376 774.935C252.782 775.115 253.188 775.292 253.597 775.466C256.294 782.85 259.794 801.003 260.154 808.959L260.202 809.865C257.285 808.153 253.536 805.928 251.877 802.888C247.561 798.079 243.584 791.775 240.906 785.894C239.245 782.246 237.039 770.742 234.996 769.021L234.264 769.666C232.811 780.644 234.851 785.814 235.608 796.498C221.022 768.292 221.675 747.479 229.388 717.403Z"/>
	<path fill="#779929" d="M278.904 746.548C279.403 756.027 274.722 764.559 274.161 773.949C273.523 784.616 279.166 795.849 281.213 806.274C274.24 802.695 267.613 795.619 264.27 788.53C267.657 783.279 267.544 775.116 269.506 769.155C270.818 765.168 273.479 761.454 275.332 757.681C277.036 754.21 277.917 750.276 278.904 746.548Z"/>
	<path fill="#779929" d="M251.877 802.888C252.612 794.649 241.138 785.017 247.32 769.909C248.485 772.928 249.489 773.648 252.376 774.935C252.782 775.115 253.188 775.292 253.597 775.466C256.294 782.85 259.794 801.003 260.154 808.959L260.202 809.865C257.285 808.153 253.536 805.928 251.877 802.888Z"/>
	<path fill="#8FA935" d="M280.358 744.594C282.275 744.693 282.618 744.845 283.939 746.218C285.166 747.495 286.543 749.057 287.336 750.635C286.408 750.513 285.511 750.403 284.575 750.362C283.403 750.319 282.232 750.258 281.062 750.179C280.792 748.542 280.916 746.727 280.529 745.174C280.48 744.978 280.415 744.787 280.358 744.594Z"/>
	<path fill="#A6CD3B" d="M744.615 716.862C759.565 712.274 778.635 713.577 793.573 717.805C796.382 732.694 800.27 748.688 797.841 763.831C796.826 770.164 794.41 776.249 793.387 782.483C792.396 782.173 791.423 782.084 790.397 781.956C789.224 781.016 789.458 779.949 789.272 778.508C789.227 778.336 789.179 778.164 789.137 777.991C788.629 775.907 788.96 770.678 787.792 769.459L786.687 769.478C784.109 772.448 785.422 777.229 784.058 780.801C781.304 788.011 776.464 796.239 771.232 801.919C768.728 805.217 765.663 807.454 762.268 809.739L762.291 809.096C762.562 802.856 765.523 779.036 769.487 775.356L768.574 773.449C768.893 771.767 768.59 771.557 767.842 770.076L766.808 769.511C764.565 770.838 759.987 784.677 757.737 788.549C755.175 795.944 746.851 802.455 740.942 807.071C741.577 802.234 743.107 797.624 744.51 792.97C749.583 776.137 748.453 773.407 744.816 756.34L743.66 752.243C743.368 751.401 743.059 751.05 742.495 750.379C739.997 749.915 737.838 750.25 735.366 750.615C731.963 756.484 728.719 763.804 721.509 765.611C719.286 766.169 716.765 766.126 714.478 766.157C718.253 760.325 722.523 754.286 725.293 747.91C726.921 744.162 727.14 739.453 729.272 736.002C733.192 729.654 739.963 723.194 744.615 716.862Z"/>
	<path fill="#779929" d="M744.816 756.34C747.757 757.594 750.137 761.763 751.321 764.687C753.148 769.196 753.194 773.927 754.298 778.592C755.06 781.813 756.503 784.824 757.461 787.986C757.522 788.186 757.645 788.361 757.737 788.549C755.175 795.944 746.851 802.455 740.942 807.071C741.577 802.234 743.107 797.624 744.51 792.97C749.583 776.137 748.453 773.407 744.816 756.34Z"/>
	<path fill="#779929" d="M774.839 769.783L775.416 769.981C776.34 773.103 777.006 776.034 776.895 779.312C776.775 782.076 776.331 784.816 775.57 787.477C774.61 790.755 770.099 799.145 771.232 801.919C768.728 805.217 765.663 807.454 762.268 809.739L762.291 809.096C762.562 802.856 765.523 779.036 769.487 775.356L768.574 773.449C770.733 772.809 772.829 770.906 774.839 769.783Z"/>
	<path fill="#060B03" d="M774.839 769.783C774.714 771.222 773.681 772.237 772.638 773.158C771.67 774.002 770.614 774.739 769.487 775.356L768.574 773.449C770.733 772.809 772.829 770.906 774.839 769.783Z"/>
	<path fill="#6D802C" d="M735.366 750.615C735.872 749.583 736.585 748.626 737.364 747.782C739.065 745.936 740.564 744.661 743.129 744.536C742.505 746.553 742.451 748.278 742.495 750.379C739.997 749.915 737.838 750.25 735.366 750.615Z"/>
	<path fill="#3B421B" d="M743.129 744.536C744.481 747.036 744.012 749.52 743.66 752.243C743.368 751.401 743.059 751.05 742.495 750.379C742.451 748.278 742.505 746.553 743.129 744.536Z"/>
	<path fill="#FEAD33" d="M715.822 120.354C716.48 117.692 717.248 115.001 718.396 112.504C722.601 103.356 729.554 96.5833 739.04 93.1333C748.619 89.6498 758.831 90.0224 768.086 94.3604C778.45 99.2184 784.054 107.003 787.937 117.508C790.651 128.053 790.036 138.503 784.356 148.029C779.204 156.667 770.93 162.557 761.17 164.919C753.249 166.835 742.884 165.897 735.822 161.587C735.279 161.256 735.041 161.059 734.497 160.658C735.645 160.012 736.886 159.783 738.153 159.452C739.388 159.726 740.865 159.666 742.049 159.242L742.465 158.191C741.573 154.632 737.991 152.006 735.367 149.669C735.308 149.647 735.243 149.635 735.191 149.601C731.981 147.508 729.496 145.617 725.755 144.479C723.976 144.348 721.502 143.911 719.853 144.694C719.587 144.821 719.333 144.972 719.073 145.111C718.12 144.567 718.342 144.821 717.678 143.93C713.982 138.969 714.685 126.223 715.822 120.354Z"/>
	<path fill="#FD7F01" d="M787.937 117.508C790.651 128.053 790.036 138.503 784.356 148.029C779.204 156.667 770.93 162.557 761.17 164.919C753.249 166.835 742.884 165.897 735.822 161.587C735.279 161.256 735.041 161.059 734.497 160.658C735.645 160.012 736.886 159.783 738.153 159.452C739.388 159.726 740.865 159.666 742.049 159.242L742.465 158.191C741.573 154.632 737.991 152.006 735.367 149.669L735.609 148.761C734.815 148.146 734.069 147.486 733.315 146.823C734.691 147.328 736.123 147.977 737.617 147.883C737.893 147.866 738.168 147.833 738.444 147.807C739.186 148.136 739.915 148.454 740.683 148.718C749.169 151.641 758.714 150.599 766.701 146.63C773.432 143.285 780.862 135.916 783.199 128.633C784.276 125.276 784.644 121.748 785.785 118.392L787.937 117.508Z"/>
	<path fill="#FD7F01" d="M725.755 144.479C723.976 144.348 721.502 143.911 719.853 144.694C719.587 144.821 719.333 144.972 719.073 145.111C718.12 144.567 718.342 144.821 717.678 143.93C713.982 138.969 714.685 126.223 715.822 120.354C715.903 120.484 715.987 120.613 716.067 120.744C717.671 123.362 718.747 126.225 720.068 128.987C722.667 134.417 725.938 138.67 730.132 142.948L725.755 144.479Z"/>
	<path fill="#F58911" d="M730.132 142.948C732.795 145.058 735.231 146.605 738.444 147.807C738.168 147.833 737.893 147.866 737.617 147.883C736.123 147.977 734.691 147.328 733.315 146.823C734.069 147.486 734.815 148.146 735.609 148.761L735.367 149.669C735.308 149.647 735.243 149.635 735.191 149.601C731.981 147.508 729.496 145.617 725.755 144.479L730.132 142.948Z"/>
	<path fill="#FBD58F" d="M747.492 93.6957C750.091 93.5412 753.542 93.7058 756.009 94.551C757.721 95.1371 758.595 95.9705 759.399 97.5508C759.55 98.9156 759.546 99.8357 758.961 101.105C757.046 105.264 752.48 108.114 748.296 109.496C745.159 110.065 741.277 110.729 738.324 109.173C736.88 108.412 735.835 107.212 735.44 105.604C734.967 103.676 735.509 101.552 736.557 99.9043C739 96.0613 743.232 94.5169 747.492 93.6957Z"/>
	<path fill="#FEAD33" d="M235.558 115.179C238.779 106.14 245.439 98.7378 254.089 94.5828C263.311 90.2124 273.899 89.716 283.49 93.2044C292.583 96.5783 300.247 104.056 304.256 112.838C305.796 116.209 306.608 119.602 307.248 123.236C307.878 129.59 308.181 138.577 304.921 144.26C301.96 146.151 296.5 142.735 288.724 148.529C286.006 151.034 281.721 154.202 280.443 157.767L280.69 158.743C281.692 159.134 282.951 159.337 283.991 158.915C284.668 158.64 284.905 158.447 285.478 158.065C286.538 158.625 287.602 159.176 288.671 159.719C287.621 160.803 286.523 161.598 285.203 162.337C277.733 166.513 267.328 166.853 259.271 164.353C249.861 161.433 241.63 154.222 237.1 145.508C232.042 135.782 232.276 125.415 235.558 115.179Z"/>
	<path fill="#FD7F01" d="M235.558 115.179C235.632 115.304 235.709 115.428 235.779 115.555C237.742 119.095 238.097 123.57 239.342 127.418C242.535 137.288 251.538 145.538 261.327 148.559C266.022 150.009 282.463 151.362 286.419 148.82C286.965 148.469 287.389 147.816 287.755 147.294C291.139 144.512 295.44 141.537 298.092 138.055C301.128 134.07 303.632 125.595 307.248 123.236C307.878 129.59 308.181 138.577 304.921 144.26C301.96 146.151 296.5 142.735 288.724 148.529C286.006 151.034 281.721 154.202 280.443 157.767L280.69 158.743C281.692 159.134 282.951 159.337 283.991 158.915C284.668 158.64 284.905 158.447 285.478 158.065C286.538 158.625 287.602 159.176 288.671 159.719C287.621 160.803 286.523 161.598 285.203 162.337C277.733 166.513 267.328 166.853 259.271 164.353C249.861 161.433 241.63 154.222 237.1 145.508C232.042 135.782 232.276 125.415 235.558 115.179Z"/>
	<path fill="#FBD58F" d="M270.974 93.6409C276.675 93.6755 281.029 94.9371 285.57 98.4071C286.12 99.6928 286.68 101.149 286.915 102.532C287.223 104.344 286.776 106.443 285.694 107.924C284.559 109.479 282.413 110.048 280.621 110.259C278.259 110.079 275.661 110.098 273.432 109.225C269.64 107.741 264.427 103.973 263.079 99.9367C262.69 98.7692 262.712 97.6019 263.399 96.5313C264.902 94.1873 268.505 93.9151 270.974 93.6409Z"/>
	<path fill="#A6CD3B" d="M650.532 291.617C641.243 291.373 633.483 288.076 626.835 281.608C622.049 276.95 615.418 266.325 615.61 259.642C615.789 253.397 633.905 244.38 638.906 240.254C642.727 237.1 645.834 232.966 649.408 229.501C653.078 233.541 657.29 237.24 661.916 240.151C664.512 241.785 673.028 245.521 674.324 247.597C674.677 248.163 674.054 249.359 673.854 249.98C671.964 255.635 671.084 261.686 669.899 267.522L665.282 289.659C660.311 290.912 655.658 291.568 650.532 291.617Z"/>
	<path fill="#779929" d="M650.532 291.617C652.648 285.994 656.078 280.701 658.391 275.105C661.768 266.934 663.509 257.903 668.222 250.345C669.74 249.478 672.144 249.909 673.854 249.98C671.964 255.635 671.084 261.686 669.899 267.522L665.282 289.659C660.311 290.912 655.658 291.568 650.532 291.617Z"/>
	<path fill="#A6CD3B" d="M348.196 247.655C351.044 244.75 355.888 243.863 359.274 241.551C364.449 238.015 369.199 233.475 374.002 229.447C377.927 233.984 381.782 238.385 386.542 242.087C393.456 247.465 402.177 251.994 408.019 258.562C404.755 270.399 399.992 280.811 388.827 287.054C383.575 289.99 378.356 291.294 372.407 291.75C367.248 291.538 362.413 290.966 357.425 289.595C354.488 277.265 353.118 258.797 348.196 247.655Z"/>
	<path fill="#779929" d="M348.196 247.655C352.425 248.968 354.967 249.666 357.07 253.866C360.469 260.657 361.834 268.916 364.457 276.078C365.799 279.745 368.004 283.17 369.917 286.561C370.887 288.281 371.82 289.853 372.407 291.75C367.248 291.538 362.413 290.966 357.425 289.595C354.488 277.265 353.118 258.797 348.196 247.655Z"/>
	<path fill="#2B333F" d="M364.377 556.186C365.914 555.841 367.792 555.911 369.38 555.798C368.64 565.115 364.571 573.504 361.768 582.301C359.643 588.968 358.329 595.682 357.092 602.552C353.882 603.42 350.854 604.913 347.659 605.837C346.279 606.236 345.632 606.607 344.361 605.885C341.788 591.063 337.541 576.503 337.005 561.397C346.053 559.282 355.185 557.543 364.377 556.186Z"/>
	<path fill="#2B333F" d="M653.471 555.348C664.294 556.522 674.77 559.42 685.587 560.629C684.887 574.011 681.932 587.053 679.182 600.123C678.682 602.496 678.168 604.867 677.642 607.235C673.77 605.151 670.006 604.058 665.741 603.133C664.338 596.383 662.943 589.597 661.079 582.956C658.686 574.432 653.287 564.104 653.471 555.348Z"/>
	<path fill="#A6CD3B" d="M724.839 154.342C724.378 153.664 723.924 152.982 723.474 152.297C722.896 151.43 722.333 150.734 722.21 149.652C722.12 148.865 722.445 148.753 722.9 148.182C724.695 147.902 726.108 148.566 727.641 149.442C730.607 151.137 737.238 156.148 738.153 159.452C736.886 159.783 735.645 160.012 734.497 160.658C733.702 159.758 734.19 160.097 733.009 159.674C731.497 160.084 730.584 160.878 729.546 162.013C723.129 169.03 717.708 177.2 711.897 184.736L669.969 239.546C665.861 237.647 662.637 235.292 659.232 232.334C665.091 227.087 670.196 220.826 675.345 214.892C684.022 204.871 692.589 194.756 701.046 184.549C708.094 176.101 720.055 163.721 724.839 154.342Z"/>
	<path fill="#A6CD3B" d="M294.799 149.653C296.534 148.827 298.074 147.937 300.035 147.917L300.859 148.504C301.083 151.228 299.336 153.29 297.889 155.432C312.134 173.338 326.704 190.984 341.592 208.359C348.68 216.647 356.529 224.486 363.349 232.945C359.889 235.446 356.392 237.615 352.4 239.177C345.513 231.301 339.453 222.514 333.173 214.139L307.101 179.904C302.868 174.343 297.343 165.73 292.678 160.953C291.769 160.022 290.963 159.6 289.689 159.276L288.671 159.719C287.602 159.176 286.538 158.625 285.478 158.065C288.205 154.99 291.608 152.24 294.799 149.653Z"/>
	<path fill="#8FA935" d="M294.799 149.653C296.534 148.827 298.074 147.937 300.035 147.917L300.859 148.504C301.083 151.228 299.336 153.29 297.889 155.432C297.361 154.867 297.558 155.196 297.308 154.303C296.738 152.265 296.393 151.089 294.799 149.653Z"/>
	<path fill="#2B333F" d="M433.561 555.167C457.441 557.492 481.228 560.103 505.249 560.404C533.785 560.762 562.237 557.967 590.579 554.857C588.652 555.954 586.645 556.907 584.659 557.892C563.514 564.549 542.384 567.119 520.29 568.23C496.661 569.266 473.003 567.027 449.988 561.576C445.041 560.373 437.389 558.626 433.561 555.167Z"/>
	<path fill="#2B333F" d="M647.751 620.627C653.124 620.978 658.531 621.997 663.876 622.685C665.988 638.055 665.488 654.139 665.49 669.625L649.422 668.917C649.622 660.655 649.773 652.234 649.315 643.983C648.885 636.216 647.83 628.4 647.751 620.627Z"/>
	<path fill="#2B333F" d="M370.26 621.137L375.004 620.721C373.882 636.851 372.821 652.618 373.185 668.803C369.991 668.912 366.809 669.201 363.625 669.462L357.083 669.525C356.693 653.929 357.739 638.783 358.662 623.258C362.532 622.804 366.429 621.867 370.26 621.137Z"/>
	<path fill="#2B333F" d="M504.563 826.491L510.907 826.546C510.985 843.443 514.303 855.435 524.742 868.887C537.5 885.327 557.337 891.573 577.343 893.102C582.99 893.533 588.832 892.979 594.413 893.686C594.471 895.29 593.765 896.418 593.123 897.857C592.632 897.96 592.142 898.07 591.646 898.142C572.417 900.919 547.661 894.904 532.153 883.152C517.913 872.361 509.687 858.357 506.394 840.811C505.505 836.074 505.205 831.263 504.563 826.491Z"/>
	<path fill="#2B333F" d="M655.737 919.089C657.949 918.911 660.217 919.036 662.437 919.062C663.851 919.879 665.221 920.771 666.54 921.734C673.987 927.278 678.072 934.99 679.397 944.111C674.718 943.563 670.054 942.899 665.408 942.119C656.761 940.306 647.252 937.991 639.124 934.542C642.892 926.605 648.016 922.73 655.737 919.089Z"/>
	<path fill="#2B333F" d="M361.726 918.504C363.257 918.428 364.597 918.471 366.065 918.967C370.72 920.54 379.223 925.947 381.105 930.632C381.619 931.91 381.809 933.129 381.175 934.41C379.513 937.771 364.908 940.651 360.785 941.787C354.879 942.644 349.044 943.765 343.074 944.102C343.268 942.435 343.494 940.775 344.031 939.179C347.19 929.788 352.89 922.912 361.726 918.504Z"/>
	<path fill="#2B333F" d="M334.888 915.498C336.323 915.364 337.918 915.498 339.294 915.935C343.673 917.323 345.723 920.975 347.766 924.759C346.595 926.865 345.262 929.032 343.812 930.954C339.306 936.929 330.942 937.199 324.126 938.331C320.755 938.729 317.216 939.756 313.838 939.635C313.474 937.767 314.993 934.822 315.719 933.086C319.467 924.12 326.08 919.093 334.888 915.498Z"/>
	<path fill="#2B333F" d="M683.122 915.031C685.772 914.882 688.01 915.364 690.45 916.43C697.738 919.615 705.656 928.144 708.281 935.664C708.769 937.062 708.818 937.995 708.15 939.305C706.584 940.056 705.047 939.647 703.394 939.426C695.69 937.881 688.214 936.021 680.748 933.554C678.542 930.326 675.747 926.944 676.558 922.755C677.253 919.159 680.263 916.932 683.122 915.031Z"/>
	<path fill="#2B333F" d="M497.974 791.541C505.009 791.726 512.047 791.798 519.084 791.758C519.103 798.893 519.063 806.027 518.966 813.161C518.006 813.44 517.088 813.67 516.096 813.812C511.905 814.41 503.166 816.065 499.761 812.909C496.698 810.069 497.99 796.218 497.974 791.541Z"/>
	<path fill="#2B333F" d="M699.737 908.066C702.25 907.965 704.445 908.008 706.793 909.013C713.599 911.928 719.266 918.478 721.83 925.395C722.404 926.942 723.346 929.137 722.621 930.751L721.351 930.767C716.979 929.979 712.591 929.643 708.901 926.91C705.323 924.259 697.464 917.732 697.319 912.984C697.256 910.922 698.353 909.442 699.737 908.066Z"/>
	<path fill="#2B333F" d="M316.73 908.591C317.607 908.514 318.489 908.431 319.368 908.398C321.293 908.326 322.061 908.703 323.438 910.007C324.299 912.049 324.022 914.039 323.913 916.201C318.024 923.219 314.872 928.894 305.122 930.314C303.039 930.761 300.706 930.825 298.577 931.061C298.911 929.775 299.267 928.492 299.742 927.249C303.06 918.566 308.225 912.484 316.73 908.591Z"/>
	<defs>
		<linearGradient id="gradient_2" gradientUnits="userSpaceOnUse" x1="252.37859" y1="707.409" x2="252.51851" y2="711.83563">
			<stop offset="0" stop-color="#FFFFF9"/>
			<stop offset="1" stop-color="#EEE9FA"/>
		</linearGradient>
	</defs>
	<path fill="url(#gradient_2)" d="M258.922 706.55C266.049 708.018 271.82 708.767 278.555 711.886C267.933 710.518 257.184 709.746 246.479 710.706C241.395 711.162 234.515 713.673 229.821 713.157L229.543 712.581C235.048 708.702 243.501 709.274 249.63 706.767C252.654 706.242 255.86 706.506 258.922 706.55Z"/>
	<defs>
		<linearGradient id="gradient_3" gradientUnits="userSpaceOnUse" x1="372.32806" y1="871.41449" x2="388.67303" y2="888.53894">
			<stop offset="0" stop-color="#607A23"/>
			<stop offset="1" stop-color="#909C3B"/>
		</linearGradient>
	</defs>
	<path fill="url(#gradient_3)" d="M366.096 875.818C375.335 873.965 381.61 875.572 390.132 879.026C392.314 879.91 394.447 880.979 396.813 881.187C396.394 882.219 395.711 883.015 395.03 883.881C385.574 879.755 375.721 879.695 365.657 880.721L366.096 875.818Z"/>
	<defs>
		<linearGradient id="gradient_4" gradientUnits="userSpaceOnUse" x1="772.12067" y1="707.15509" x2="771.96216" y2="711.87769">
			<stop offset="0" stop-color="#FFFFF7"/>
			<stop offset="1" stop-color="#EDE9FD"/>
		</linearGradient>
	</defs>
	<path fill="url(#gradient_4)" d="M763.13 706.834C765.421 705.846 769.765 706.419 772.281 706.447C772.583 706.593 772.883 706.745 773.188 706.886C777.366 708.816 791.331 709.18 793.313 713.132C789.979 714.271 779.446 710.8 774.985 710.564C764.74 710.021 754.3 710.243 744.184 711.95C748.318 709.974 752.049 708.774 756.567 708.013C758.709 707.653 761.1 707.592 763.13 706.834Z"/>
	<path fill="#6D802C" d="M631.876 879.338C637.212 876.968 647.291 873.393 653.138 875.472C654.537 875.969 656.002 876.731 656.615 878.154C656.948 878.926 656.602 879.207 656.306 879.93C654.421 880.852 649.382 879.962 647.003 880.043C642.456 880.175 637.934 880.767 633.507 881.811C632.861 881.016 632.372 880.234 631.876 879.338Z"/>
	<path fill="#6D802C" d="M416.065 920.176C419.388 918.747 423.433 916.354 426.998 915.962L427.89 916.448C427.932 917.717 427.58 918.779 426.736 919.74C425.894 920.698 424.826 921.631 423.845 922.438C416.905 924.874 409.354 926.308 402.204 928.02C406.585 924.548 410.902 922.277 416.065 920.176Z"/>
	<path fill="#576C21" d="M416.065 920.176C419.388 918.747 423.433 916.354 426.998 915.962L427.89 916.448C427.932 917.717 427.58 918.779 426.736 919.74C425.894 920.698 424.826 921.631 423.845 922.438C421.279 921.593 418.684 920.838 416.065 920.176Z"/>
	<path fill="#8FA935" d="M648.005 295.117L648.827 295.16C652.815 295.338 664.077 292.932 666.804 294.582C666.752 295.595 666.518 295.671 665.783 296.321C662.155 299.53 657.002 300.874 652.24 300.409C650.259 300.216 648.261 299.579 646.283 299.544C647.141 298.025 647.665 296.834 648.005 295.117Z"/>
	<path fill="#6D802C" d="M594.123 915.434C601.658 919.026 614.51 921.581 619.811 927.825C612.948 927.006 602.023 924.619 596.483 920.45C594.547 918.992 594.433 917.686 594.123 915.434Z"/>
	<defs>
		<linearGradient id="gradient_5" gradientUnits="userSpaceOnUse" x1="413.40295" y1="266.71552" x2="402.68277" y2="268.34753">
			<stop offset="0" stop-color="#78863C"/>
			<stop offset="1" stop-color="#9FA944"/>
		</linearGradient>
	</defs>
	<path fill="url(#gradient_5)" d="M402.692 277.755C407.503 271.187 409.821 266.323 410.811 258.23C410.947 257.118 410.852 257.523 411.486 256.506C412.652 257.202 413.477 257.673 413.837 259.106C414.97 263.621 411.082 270.795 408.421 274.417C407.286 275.962 405.947 277.34 405.364 279.198C404.646 278.575 403.549 278.181 402.692 277.755Z"/>
	<path fill="#2B333F" d="M501.772 817.298L502.235 817.378C502.492 817.42 502.75 817.457 503.007 817.5C506.84 818.15 510.752 817.085 514.374 818.61C515.117 820.065 514.668 820.833 514.357 822.405C513.722 822.586 513.705 822.606 512.939 822.735C510.052 823.219 505.63 823.81 503.188 821.849C501.862 820.783 501.934 818.87 501.772 817.298Z"/>
	<path fill="#6D802C" d="M789.272 778.508C789.458 779.949 789.224 781.016 790.397 781.956C791.423 782.084 792.396 782.173 793.387 782.483C791.362 787.624 788.593 792.406 785.678 797.085C786.367 790.824 787.962 784.664 789.272 778.508Z"/>
	<path fill="#8FA935" d="M610.149 266.458C611.186 266.087 612.133 265.602 613.119 265.116C614.168 269.563 616.491 272.653 618.768 276.466C617.814 277.684 617.545 278.127 617.485 279.745C616.005 275.1 612.187 271.021 610.149 266.458Z"/>
	<path fill="#6D802C" d="M610.149 266.458C609.42 265.015 608.797 263.778 608.857 262.101C608.927 260.151 609.377 257.65 610.878 256.288L611.682 256.579C612.743 259.061 612.662 262.393 613.119 265.116C612.133 265.602 611.186 266.087 610.149 266.458Z"/>
	<path fill="#8FA935" d="M626.18 880.825C628.204 880.766 629.989 880.008 631.876 879.338C632.372 880.234 632.861 881.016 633.507 881.811C630.424 882.838 627.486 883.992 624.523 885.325C624.9 883.774 625.579 882.304 626.18 880.825Z"/>
	<path fill="#6D802C" d="M732.058 623.216C731.492 624.081 731.005 624.867 730.25 625.582C729.025 626.589 727.884 627.908 726.779 629.058C724.569 631.358 723.041 632.155 719.923 632.794L719.884 632.449C723.135 629.622 728.094 624.623 732.058 623.216Z"/>
	<path fill="#3B421B" d="M296.545 627.125C298.534 628.237 301.768 629.52 302.386 631.92C302.431 632.094 302.438 632.275 302.464 632.452L301.805 633.185C300.075 633.092 299.453 632.786 298.265 631.507C297.624 630.817 296.824 630.038 296.36 629.219C296.77 628.444 296.595 627.983 296.545 627.125Z"/>
	<path fill="#576C21" d="M288.194 621.118C289.29 621.047 290.045 620.906 291.09 621.321C291.508 623.593 294.776 625.742 296.545 627.125C296.595 627.983 296.77 628.444 296.36 629.219C293.969 626.303 291.309 623.265 288.194 621.118Z"/>
</svg>
