<?xml version="1.0" encoding="UTF-8" standalone="no"?>
<svg
   xmlns:dc="http://purl.org/dc/elements/1.1/"
   xmlns:cc="http://creativecommons.org/ns#"
   xmlns:rdf="http://www.w3.org/1999/02/22-rdf-syntax-ns#"
   xmlns:svg="http://www.w3.org/2000/svg"
   xmlns="http://www.w3.org/2000/svg"
   xmlns:sodipodi="http://sodipodi.sourceforge.net/DTD/sodipodi-0.dtd"
   xmlns:inkscape="http://www.inkscape.org/namespaces/inkscape"
   inkscape:version="1.0 (4035a4f, 2020-05-01)"
   sodipodi:docname="fotor-ai-20250525201718.svg"
   id="svg384"
   version="1.1"
   height="644.99829"
   width="721.49408">
  <metadata
     id="metadata390">
    <rdf:RDF>
      <cc:Work
         rdf:about="">
        <dc:format>image/svg+xml</dc:format>
        <dc:type
           rdf:resource="http://purl.org/dc/dcmitype/StillImage" />
        <dc:title></dc:title>
      </cc:Work>
    </rdf:RDF>
  </metadata>
  <defs
     id="defs388" />
  <sodipodi:namedview
     inkscape:current-layer="svg384"
     inkscape:window-maximized="0"
     inkscape:window-y="25"
     inkscape:window-x="0"
     inkscape:cy="211.2326"
     inkscape:cx="468.5365"
     inkscape:zoom="0.57519531"
     fit-margin-bottom="0"
     fit-margin-right="0"
     fit-margin-left="0"
     fit-margin-top="0"
     showgrid="false"
     id="namedview386"
     inkscape:window-height="847"
     inkscape:window-width="1490"
     inkscape:pageshadow="2"
     inkscape:pageopacity="0"
     guidetolerance="10"
     gridtolerance="10"
     objecttolerance="10"
     borderopacity="1"
     bordercolor="#666666"
     pagecolor="#ffffff" />
  <path
     style="stroke-width:0.666186"
     id="path210"
     d="M 0,0 H 721.49406 V 644.9983 H 0 Z"
     fill="#fefefe" />
  <path
     style="stroke-width:0.666186"
     id="path212"
     d="m 433.11908,56.41316 c -3.828,-3.75755 -6.40889,-8.16086 -6.66184,-13.31928 -0.28465,-5.79119 2.18069,-12.41407 6.62732,-16.67257 4.78624,-4.53111 11.38185,-7.18669 18.34878,-7.38763 6.40748,-0.13668 13.12006,2.12094 17.70831,6.14846 4.87008,4.27526 8.53744,9.99521 8.49094,16.219 0,6.47694 -2.96278,12.67201 -8.20065,17.14701 -5.60074,4.78703 -11.62212,6.10726 -19.1978,5.98695 -0.84339,2.32615 -1.7974,6.89405 -4.47834,7.97115 -1.276,0.51272 -2.71829,-0.12724 -3.93299,-0.51902 l -30.78257,68.5128 c 2.68587,1.10796 6.0869,2.34253 8.02169,4.3972 2.2758,2.41685 1.84389,5.1266 1.57404,8.03791 2.10741,0.92845 4.23103,1.85563 6.27855,2.88612 4.24512,2.13719 7.97096,5.04346 12.02302,7.45212 5.65781,3.3642 12.75015,6.28622 17.66322,10.49193 2.33076,1.99547 4.0739,4.73608 6.15947,6.96523 14.1248,15.10077 23.07513,28.17899 28.92177,47.31415 4.00837,-0.068 7.16914,0.51839 10.60821,2.46221 7.792,4.40476 10.80269,7.73431 12.79314,15.7697 2.31103,9.32917 3.82518,35.987 1.73961,44.91368 -0.54253,2.29339 -1.55924,4.47656 -2.998,6.43612 -3.09876,4.15092 -8.58113,5.53855 -13.73587,6.55203 -2.16659,6.74728 -3.26363,12.92579 -6.26868,19.61324 -7.2389,16.1111 -19.69735,26.78569 -36.96882,34.30206 -3.90128,1.69816 -8.03015,3.04611 -12.02584,4.56097 l 0.68274,4.72348 0.43825,0.0252 c 15.49099,0.77349 30.14281,8.98084 43.07193,15.95174 5.31468,2.86533 10.61949,5.62799 15.73336,8.78369 4.23948,2.6159 7.86316,3.74338 13.03269,2.85588 13.68232,-2.3482 21.63214,-11.404 29.00632,-21.10921 -0.50378,-0.61035 -0.95683,-1.25283 -1.35562,-1.92176 -1.21964,-2.06412 -0.61863,-3.85299 0.0648,-5.94482 -5.46053,-4.13013 -8.20277,-9.41735 -12.29288,-14.49672 -1.61843,-2.00995 -3.84773,-3.84731 -5.10753,-6.04056 -1.83051,-3.12736 -2.10107,-6.79893 -0.74615,-10.114 0.84338,-2.06349 2.34838,-3.81456 4.65518,-4.68379 2.15744,-0.81255 4.89968,-0.82641 7.0543,-0.003 4.91095,1.87704 6.63789,7.7173 8.56422,11.75232 l 0.41711,0.12283 c 2.39277,-5.74389 -1.40212,-12.5422 0.18883,-18.47064 0.54746,-2.04207 1.80655,-4.26429 3.93158,-5.32375 1.63886,-0.81759 3.47853,-0.725 5.21603,-0.22109 3.83294,1.11174 5.57186,3.67346 7.26779,6.73406 1.84249,-1.50731 3.75191,-2.75384 6.33914,-2.88234 1.89111,-0.0939 3.58493,0.50705 4.97296,1.64525 1.9686,1.61376 3.45739,4.69009 3.46937,7.06664 0.002,0.82892 -0.004,1.65784 -0.019,2.48677 l 0.47983,0.19652 c 1.49512,-0.65193 2.83736,-1.14575 4.50652,-0.69287 2.06443,0.5606 3.58844,2.26505 4.51849,3.92668 0.84128,1.50101 1.56347,3.54119 1.41199,5.24187 -0.40584,4.56979 -4.1197,9.30146 -6.12143,13.44292 -1.45426,3.00895 -2.50973,6.38448 -4.54879,9.12446 -1.84531,2.47984 -4.65871,4.29579 -6.23768,6.96586 -1.53741,2.59889 -2.19408,6.06638 -3.20657,8.8851 -3.06494,8.533 -11.27545,20.44091 -18.43896,26.57028 -2.95503,2.52834 -6.31871,4.5194 -9.95718,6.17409 -6.77387,3.08075 -21.6251,8.71504 -29.04155,8.91282 -12.46832,0.33132 -37.66776,-15.12407 -49.28988,-20.61601 -4.3804,-2.10947 -8.96935,-3.85109 -13.70979,-5.20219 0.52209,9.60821 1.19145,19.26933 1.19286,28.89076 0.002,9.13139 -0.56649,18.35726 -1.1823,27.47227 -0.34454,5.10393 -1.5536,19.7789 -5.17446,23.45866 -2.20958,2.24616 -5.54437,3.20421 -8.00901,5.20156 -0.0852,0.0693 -0.16839,0.14172 -0.25294,0.21227 3.19388,3.87377 6.54417,7.72549 9.44213,11.78319 2.99307,4.18997 11.60943,18.43914 12.8502,22.76264 1.66282,5.79491 1.02235,38.03916 -0.49673,44.08035 11.20077,1.28306 21.51236,4.49924 30.64377,10.60027 0.17262,0.11526 0.34102,0.23557 0.51223,0.3521 1.93549,1.3133 3.32564,2.85966 4.83979,4.54207 10.07344,1.58037 45.59152,4.24288 51.20987,11.49596 0.54605,0.70484 0.86664,1.59675 0.55733,2.44331 -0.82296,2.25624 -4.88418,3.68796 -7.20085,4.45641 -14.13607,4.69136 -31.81408,6.05379 -46.79636,7.57495 -26.26407,2.66692 -52.5824,3.90212 -78.98246,4.7682 -52.07722,1.80272 -104.2256,0.99522 -156.20135,-2.41685 -20.87612,-1.38133 -58.4692,-3.58717 -76.55799,-11.37251 -1.26402,-0.54421 -2.89302,-1.43612 -3.38764,-2.694 -0.37202,-0.94797 -0.36568,-1.76996 0.1846,-2.66628 2.31386,-3.76984 11.98639,-5.47682 16.45627,-6.45692 11.41919,-2.50377 26.00901,-4.7241 37.72484,-4.78835 14.12338,-9.09612 19.85447,-11.61123 36.93218,-14.32854 -3.51799,-8.68291 -5.95585,-17.6858 -7.26849,-26.84616 -0.69613,-5.22487 -1.46131,-11.0267 -0.60172,-16.23708 1.79458,-10.87364 13.69994,-27.11197 21.35665,-35.80118 -2.95432,-1.74163 -6.47372,-3.0417 -8.71711,-5.58579 -8.15627,-9.25044 -8.90665,-51.09911 -8.50081,-63.39943 0.15712,-4.77828 0.61722,-9.45388 1.3218,-14.19122 -3.5814,0.73696 -7.31992,0.93978 -10.94712,1.47896 -5.26184,0.78294 -10.51803,1.99231 -15.7087,3.0965 -25.15436,5.35084 -33.65728,18.07318 -46.29893,36.46193 0.53408,0.73255 1.12522,1.53565 1.20625,2.4326 0.12965,1.43424 -0.96669,2.51385 -1.86855,3.58024 4.47904,5.3162 12.74522,14.743 12.38024,21.59422 -0.23463,4.41294 -1.5367,10.86986 -5.42177,13.89203 -1.48386,1.15394 -3.38553,1.79075 -5.35907,1.63895 -2.30047,-0.17763 -4.27048,-1.3933 -5.72122,-2.94155 -4.32051,-4.60947 -3.77234,-8.91345 -3.23827,-14.41546 -1.10901,0.47682 -2.2899,0.92026 -3.34184,1.49219 -4.54316,2.47291 -5.92203,10.92214 -7.17478,15.17699 -0.80534,2.73935 -2.25678,5.91773 -5.19842,7.33181 -1.55713,0.7483 -3.53701,0.81948 -5.1956,0.2929 -2.51819,-0.79932 -3.55252,-2.89053 -4.67562,-4.86646 -2.12573,0.95049 -4.69324,2.0364 -7.11349,1.33031 -2.84017,-0.8283 -4.16197,-3.91976 -5.3802,-6.09536 -1.75794,-0.645 -3.39539,-1.1867 -4.6263,-2.55732 -1.81289,-2.01877 -2.03765,-4.43437 -1.65647,-6.9161 1.90167,-12.37149 15.09289,-24.19121 25.81032,-31.25407 0.11837,-0.77097 0.24801,-1.54132 0.54041,-2.27828 0.9209,-2.32489 3.20093,-3.10468 5.5169,-4.04069 1.85023,-6.20874 5.20546,-11.83484 8.81012,-17.35259 5.63526,-8.6256 21.00153,-23.80069 29.99978,-29.31152 7.12757,-4.36508 16.8931,-8.08012 25.1628,-10.02582 7.30654,-1.71832 14.85757,-3.00957 22.25711,-4.38397 2.64078,-0.49068 5.47321,-0.7483 8.05974,-1.40086 1.16115,-0.2929 1.22175,-0.21731 1.82135,-1.16339 -0.91808,-1.27992 -3.18331,-1.68115 -4.72847,-2.13719 -5.19208,-1.5325 -10.16926,-3.69551 -15.04428,-5.90009 -18.6137,-8.41522 -25.29527,-16.84555 -34.45627,-33.05554 -4.7186,-0.12786 -9.78738,-0.27715 -14.18962,-1.97153 -5.58664,-2.15041 -8.20206,-7.12647 -10.21294,-11.93876 -4.50089,-10.77475 -8.51208,-40.51207 -3.05156,-50.64182 2.79791,-5.19148 11.16132,-8.61236 16.87832,-10.53035 0.45868,-6.55769 2.49493,-13.62307 4.54456,-19.92818 7.86034,-24.17862 19.44511,-45.70607 41.78395,-61.83732 4.13732,-2.98753 8.22531,-6.04623 12.90093,-8.34404 -0.44952,-1.25472 -0.87227,-2.65117 -0.97162,-3.96825 -0.29874,-3.96069 3.12201,-6.79012 5.76139,-9.57671 -1.68678,-3.84291 -4.04361,-7.61212 -6.09113,-11.31834 -4.96662,-8.99281 -10.17349,-17.82249 -15.48465,-26.65531 -5.65992,-9.41357 -10.81959,-19.05705 -16.52461,-28.45488 -0.27831,0.15684 -0.55803,0.31116 -0.83986,0.46233 -1.13579,0.60595 -2.31245,1.23835 -3.68004,0.77539 -2.59499,-0.87869 -4.0422,-5.11338 -5.13642,-7.26379 -4.7954,0.64311 -9.50343,0.37793 -14.01065,-1.30323 -5.82551,-2.17246 -10.22422,-6.72524 -12.53949,-11.91042 -2.60484,-5.83396 -2.06936,-11.77991 0.72784,-17.477 2.71758,-5.53564 8.13724,-9.80221 14.42777,-11.95199 6.29334,-2.15079 12.99394,-1.60116 19.06252,0.90967 5.86707,2.42763 10.60469,7.27551 12.73888,12.70886 2.9057,7.40004 0.40654,13.38964 -3.22066,20.08231 2.5351,2.01814 4.27401,4.12699 5.76139,6.84555 -0.98149,0.9864 -2.24904,1.79516 -3.39258,2.62913 2.02498,4.02305 4.72917,7.9428 7.03105,11.86318 l 13.40964,23.09396 c 6.36733,10.88813 12.0033,22.09119 18.5052,32.9283 2.13418,-0.66768 5.08146,-1.44306 7.34106,-1.23205 3.32775,0.31053 5.042,2.61086 6.98947,4.74553 7.80045,-2.41938 15.60865,-4.806 23.66134,-6.48148 22.95253,-4.77639 47.68977,-4.2517 70.88468,-1.11489 0.69402,-1.26417 1.53106,-2.72109 2.78522,-3.60985 3.0741,-2.17813 7.36784,-1.68682 11.00983,-1.4103 1.93268,-8.40703 8.17529,-21.44179 11.90465,-29.77197 l 18.59961,-40.99518 c -1.14283,-0.97758 -2.37444,-1.88398 -3.56871,-2.81179 1.36689,-2.77205 3.2291,-5.24351 5.24421,-7.66654 z" />
  <path
     style="stroke-width:0.666186"
     id="path214"
     d="m 318.17536,487.82406 c 7.82793,0.46044 15.77423,1.44683 23.59793,1.58541 10.92457,0.19337 22.05348,0.10771 32.95691,-0.48312 8.60579,-0.46611 17.19045,-1.31519 25.80187,-1.74666 2.51678,2.98689 19.14144,29.5515 19.84602,32.41557 0.67499,2.73936 0.31002,6.24464 0.36357,9.06147 0.18812,9.86709 0.79618,20.25194 -0.78209,30.06297 -0.68979,4.28382 -4.12041,8.29868 -5.46616,12.55038 -6.1327,-10e-4 -12.31332,-0.34643 -18.45024,-0.47745 -9.867,-0.21101 -19.74738,-0.2551 -29.61719,-0.33761 -18.36921,-0.0315 -36.73772,0.19589 -55.09918,0.68216 -0.0437,-0.11401 -0.0852,-0.22865 -0.13035,-0.34203 -1.14988,-2.90627 -3.34959,-5.29037 -4.68337,-8.10153 -3.38059,-7.12585 -5.7952,-17.34819 -7.27835,-24.97542 -1.24993,-6.42542 0.49955,-13.11475 -1.8756,-19.36758 4.38744,-7.04459 9.00106,-13.97455 13.8345,-20.78167 2.24763,-3.19665 5.18152,-6.34479 6.98173,-9.74489 z"
     fill="#fefefe" />
  <path
     style="stroke-width:0.666186"
     id="path216"
     d="m 311.3268,571.13718 c 18.36146,-0.48627 36.72997,-0.71366 55.09918,-0.68216 9.86981,0.0825 19.75019,0.1266 29.61719,0.33761 6.13692,0.13102 12.31754,0.47619 18.45024,0.47745 -0.67429,2.55228 -1.64169,5.37415 0.0599,7.78344 2.09614,2.96737 7.58697,3.96762 10.91331,5.44155 3.04239,1.34794 5.59439,3.50214 8.60508,4.89795 5.76914,2.67385 12.57965,4.00416 18.75744,5.7716 3.80052,1.08781 7.59682,2.61842 11.51713,3.29995 4.06827,0.7061 8.88903,0.96435 12.43591,-1.28559 1.47892,-0.93789 2.1363,-2.00806 2.91979,-3.44419 2.98533,-0.19211 8.49799,-0.0523 10.72166,-1.92302 1.05406,-0.88751 0.96528,-1.95075 2.3519,-2.66944 2.13912,0.008 4.67492,0.29604 6.3631,-1.15142 0.77575,-0.66516 1.16397,-1.37251 1.14706,-2.34694 -0.0578,-3.31758 -4.20425,-7.08931 -6.14397,-9.76694 10.07344,1.58037 45.59152,4.24288 51.20987,11.49596 0.54605,0.70484 0.86664,1.59675 0.55733,2.44331 -0.82296,2.25624 -4.88418,3.68796 -7.20085,4.45641 -14.13607,4.69136 -31.81408,6.05379 -46.79636,7.57495 -26.26407,2.66692 -52.5824,3.90212 -78.98246,4.7682 -52.07722,1.80272 -104.2256,0.99522 -156.20135,-2.41685 -20.87612,-1.38133 -58.4692,-3.58717 -76.55799,-11.37251 -1.26402,-0.54421 -2.89302,-1.43612 -3.38764,-2.694 -0.37202,-0.94797 -0.36568,-1.76996 0.1846,-2.66628 2.31386,-3.76984 11.98639,-5.47682 16.45627,-6.45692 11.41919,-2.50377 26.00901,-4.7241 37.72484,-4.78835 -2.76691,2.34694 -6.49556,5.28533 -7.48269,8.70873 -0.33115,1.14828 -0.25083,2.35072 0.52633,3.34467 1.68325,2.15546 4.82569,2.35072 7.47352,2.68771 1.83192,7.20332 10.70615,3.00201 14.78922,4.30775 1.86503,0.5965 3.09806,2.62913 4.6721,3.67221 1.88758,1.25094 6.43708,1.24654 8.71077,0.93034 3.89917,-0.5417 7.87091,-1.89091 11.6045,-3.02028 5.74377,-1.73785 11.63409,-3.43664 17.20664,-5.58075 4.17819,-1.60746 8.15838,-3.58151 12.2809,-5.29226 2.80566,-1.16402 9.28713,-2.74377 10.76887,-5.12283 1.75723,-2.81934 0.50025,-6.79893 -0.37132,-9.71906 z"
     fill="#dad9d9" />
  <path
     style="stroke-width:0.666186"
     id="path218"
     d="m 223.44967,208.84087 c 2.22296,-3.71566 5.30904,-10.37036 7.63417,-13.41331 1.65295,-2.16302 4.19439,-4.03061 6.20386,-5.94734 3.57858,-3.41396 6.90422,-7.06349 10.6667,-10.32123 2.21803,-1.91988 12.0505,-9.9578 14.67719,-10.39682 0.67429,-0.11275 1.76216,0.0334 2.46886,0.0516 7.69617,0.20156 18.35019,-5.9675 24.27151,-10.18896 2.00595,-1.42983 3.79137,-3.26152 5.91428,-4.53451 2.97757,-1.78509 7.11066,-2.70094 10.51521,-3.57269 17.67449,-4.52444 39.11358,-7.01184 57.54268,-6.56651 6.73018,0.16314 14.00431,1.39519 20.64149,2.41811 0.23533,0.39305 0.48969,0.78546 0.77927,1.14954 2.3054,2.90123 23.10683,7.85776 27.7592,8.80636 2.06373,0.42013 4.13591,0.5606 6.22993,0.7861 1.4747,0.15873 2.84018,0.46611 4.18171,1.04749 4.03656,1.74855 7.7152,4.29138 11.45231,6.49533 7.02118,4.14147 16.11806,8.17334 21.32494,14.20256 4.51779,4.45578 9.52386,9.32035 13.37864,14.23847 14.50316,18.50905 19.73188,37.15543 23.31821,59.10804 0.63835,3.90464 1.54727,7.78848 2.04752,11.70886 0.41359,3.242 0.49251,6.52683 0.73207,9.78269 0.6764,9.18493 1.80373,17.93334 1.23724,27.1989 -0.66019,10.79868 -10.77661,34.12129 -19.73328,41.13753 -3.9809,3.11855 -8.77419,5.57823 -13.30043,8.01209 -40.15143,21.58981 -101.67571,26.71326 -147.83724,23.65897 -8.18656,-0.54233 -27.10182,-2.23293 -34.08214,-4.57042 -7.40517,-1.16276 -14.42494,-3.01965 -21.31296,-5.74137 -17.11153,-6.76051 -33.59034,-16.98285 -40.54176,-33.16072 -2.5506,-6.72776 -5.27522,-13.39694 -6.93804,-20.35524 -1.29785,-5.42705 -2.09896,-11.00213 -3.0283,-16.4884 -4.04291,-23.88131 -3.83224,-40.24877 3.9971,-63.67783 2.30399,-6.89594 5.38443,-14.82426 9.80006,-20.86734 z"
     fill="#c4dd2d" />
  <path
     style="stroke-width:0.666186"
     id="path220"
     d="m 455.71298,178.85664 c 4.51779,4.45578 9.52386,9.32035 13.37864,14.23847 14.50316,18.50905 19.73188,37.15543 23.31821,59.10804 0.63835,3.90464 1.54727,7.78848 2.04752,11.70886 0.41359,3.242 0.49251,6.52683 0.73207,9.78269 0.6764,9.18493 1.80373,17.93334 1.23724,27.1989 -0.66019,10.79868 -10.77661,34.12129 -19.73328,41.13753 -3.9809,3.11855 -8.77419,5.57823 -13.30043,8.01209 -40.15143,21.58981 -101.67571,26.71326 -147.83724,23.65897 -8.18656,-0.54233 -27.10182,-2.23293 -34.08214,-4.57042 -7.40517,-1.16276 -14.42494,-3.01965 -21.31296,-5.74137 -17.11153,-6.76051 -33.59034,-16.98285 -40.54176,-33.16072 -2.5506,-6.72776 -5.27522,-13.39694 -6.93804,-20.35524 -1.29785,-5.42705 -2.09896,-11.00213 -3.0283,-16.4884 -4.04291,-23.88131 -3.83224,-40.24877 3.9971,-63.67783 2.30399,-6.89594 5.38443,-14.82426 9.80006,-20.86734 0.87509,0.91207 2.15885,1.08655 3.40103,1.39141 -7.38757,17.79226 -12.86853,37.61839 -12.58599,56.69435 0.13035,8.7503 1.55643,17.54156 3.42076,26.12054 3.40596,15.66577 8.16824,31.86002 21.44472,43.33771 26.21193,22.6606 67.82044,25.63931 102.31828,25.0888 30.31262,-0.48375 75.35668,-7.22474 102.86223,-19.07343 9.72678,-4.12951 18.54958,-9.78017 26.0527,-16.68493 8.99824,-8.44355 10.77802,-20.40122 12.7114,-31.46256 3.06071,-17.51133 3.14103,-32.42187 0.14232,-49.91619 -0.73699,-4.29894 -1.33096,-8.70748 -2.64078,-12.89997 -1.82839,-5.85474 -5.93119,-15.05101 -8.79462,-20.71427 -2.76408,-5.46611 -16.21529,-26.95765 -16.09622,-31.40461 0.004,-0.1537 0.0183,-0.30739 0.0275,-0.46108 z"
     fill="#92b530" />
  <path
     style="stroke-width:0.666186"
     id="path222"
     d="m 219.61885,330.22968 c 2.8282,0.15873 4.55866,0.62925 6.45187,2.55921 3.47642,3.54371 5.65711,8.12421 9.06941,11.74917 8.4078,8.93172 27.33293,17.07986 39.72374,20.67585 1.92774,0.55934 7.47564,1.65911 7.80961,3.6911 -0.13246,0.006 -0.26563,0.008 -0.39738,0.0164 -0.54887,0.0353 -0.33891,-0.0113 -0.80253,0.21038 -7.40517,-1.16276 -14.42494,-3.01965 -21.31296,-5.74137 -17.11153,-6.76051 -33.59034,-16.98285 -40.54176,-33.16072 z"
     fill="#c4dd2d" />
  <path
     style="stroke-width:0.666186"
     id="path224"
     d="m 270.87593,212.96219 c 3.55603,-0.28534 6.48992,0.0617 9.56402,1.8065 8.71852,4.94645 12.99042,17.3885 15.10065,25.83646 3.78502,15.14738 5.95232,46.6301 -3.54195,59.84375 -2.81622,3.91849 -7.37136,5.67523 -12.24285,6.65029 -3.30309,-0.0409 -6.12425,-0.63303 -8.92567,-2.25309 -9.63801,-5.57319 -13.97472,-18.75471 -16.40413,-28.11223 -4.32473,-16.65531 -5.86636,-41.7145 4.72565,-56.65655 2.82186,-3.98084 6.66254,-6.10165 11.72428,-7.11513 z" />
  <path
     style="stroke-width:0.666186"
     id="path226"
     d="m 271.43818,244.11863 c 0.9836,-0.0397 2.22931,-0.17574 3.18966,0.006 1.47328,0.27841 2.7521,1.79201 3.55533,2.84958 6.11226,8.04295 9.26669,34.46143 7.24805,43.96633 -0.69894,3.29176 -1.86644,5.68027 -5.00959,7.61023 -0.90821,0.0598 -1.85517,0.14235 -2.74858,-0.0561 -2.21521,-0.49257 -3.91326,-2.29466 -5.042,-3.96762 -6.18625,-9.16918 -8.56141,-34.10492 -5.52676,-44.65984 0.74756,-2.60078 1.69805,-4.37074 4.33389,-5.74892 z"
     fill="#f90165" />
  <path
     style="stroke-width:0.666186"
     id="path228"
     d="m 279.96647,224.80899 c 0.17192,-0.002 0.34313,-0.008 0.51505,-0.006 1.52895,0.0183 2.40686,0.32376 3.42639,1.34417 2.86484,2.86659 4.75735,8.68543 4.47482,12.52078 -0.11556,1.56966 -0.74545,2.27009 -2.03484,3.28231 -1.7051,-0.0139 -3.22982,-0.30738 -4.55021,-1.33661 -2.76408,-2.15482 -3.77234,-5.99395 -3.97244,-9.1528 -0.1684,-2.67133 0.1691,-4.62081 2.14123,-6.65218 z"
     fill="#fefefe" />
  <path
     style="stroke-width:0.666186"
     id="path230"
     d="m 427.54442,198.15872 c 3.03605,-0.21101 5.75574,0.27967 8.40568,1.65848 9.83247,5.11526 15.41701,19.0602 17.91123,28.33205 3.93229,14.61828 7.70956,44.42741 -1.30982,57.3954 -2.54073,3.65394 -5.65499,5.71176 -10.30031,6.71139 -3.15724,0.0428 -5.94669,-0.18393 -8.85451,-1.43172 -7.5165,-3.225 -11.68482,-11.21693 -14.31926,-17.85839 -6.00094,-15.13038 -11.22896,-52.26502 -3.1206,-66.71576 2.39558,-4.2687 6.65761,-6.68367 11.58759,-8.09145 z" />
  <path
     style="stroke-width:0.666186"
     id="path232"
     d="m 432.28556,228.66386 c 0.78843,-0.0391 1.6593,-0.10833 2.43575,0.0321 1.69523,0.30612 3.10792,1.66981 4.0887,2.85714 7.45873,9.02746 9.81345,32.62847 7.71167,43.92854 -0.64962,3.49458 -1.65084,6.39141 -4.99268,8.52733 -1.14072,0.11023 -2.31385,0.1518 -3.45246,6.3e-4 -1.55925,-0.20597 -2.53862,-1.12245 -3.39962,-2.23419 -6.48358,-8.36797 -9.21314,-36.63262 -6.92183,-46.56207 0.69542,-3.01461 1.63956,-4.84001 4.53047,-6.54951 z"
     fill="#f90165" />
  <path
     style="stroke-width:0.666186"
     id="path234"
     d="m 437.56783,211.88761 c 2.58018,0.30864 3.77727,1.12875 5.32877,3.00453 2.4752,2.99194 4.59389,7.97556 3.85055,11.69312 -0.34947,1.74855 -1.32744,2.43134 -2.90641,3.39695 -0.40725,0.0787 -0.75813,0.16062 -1.183,0.17321 -1.49231,0.0441 -3.00857,-1.16339 -3.92453,-2.10758 -2.82961,-2.91446 -4.33249,-8.05681 -3.88014,-11.84176 0.24942,-2.08365 0.94766,-2.99446 2.71476,-4.31847 z"
     fill="#fefefe" />
  <path
     style="stroke-width:0.666186"
     id="path236"
     d="m 310.6962,152.53391 c 2.84088,-0.28912 6.73089,-0.56752 9.32376,0.64311 1.19004,0.55555 2.15462,1.49408 2.50479,2.6688 0.42839,1.43298 -0.17966,2.89431 -0.98219,4.12636 -2.17857,3.34592 -5.89595,6.21566 -9.35758,8.47001 -3.34113,2.17561 -7.16773,3.90463 -10.77802,5.7105 -10.06991,5.03527 -20.40757,10.23116 -31.63582,12.85902 -2.78734,0.53099 -7.01484,1.0897 -9.49075,-0.44532 -1.11254,-0.69035 -1.92774,-1.85941 -2.12361,-3.05745 -0.291,-1.77437 0.7532,-3.42088 1.8911,-4.79276 2.10811,-2.5422 4.86374,-4.82867 7.74479,-6.65533 3.76459,-2.38724 8.29225,-3.72952 12.30697,-5.76026 9.92829,-5.02204 18.92724,-12.24426 30.59656,-13.76668 z"
     fill="#f6fa96" />
  <path
     style="stroke-width:0.666186"
     id="path238"
     d="m 405.14357,307.06139 c 1.44933,0.75523 2.64572,1.67738 3.91326,2.64739 -11.26136,9.65419 -19.13509,9.56475 -33.76859,6.113 -4.88348,-1.15205 -9.37027,-2.08806 -14.44186,-1.38385 -9.52034,1.32149 -17.04389,7.50503 -26.35779,9.52947 -7.86034,1.70824 -14.08252,0.11905 -20.84582,-3.53804 -0.50801,-0.29226 -1.04349,-0.58012 -1.51345,-0.91963 -0.7384,-0.53288 -0.8758,-0.79239 -0.98923,-1.62068 0.64187,-1.02293 1.69311,-1.58289 2.73096,-2.25434 21.16641,13.5689 29.44809,-4.60948 48.71283,-5.61917 9.59362,-0.50265 18.18743,4.19248 27.75216,3.8851 6.702,-0.21542 10.39543,-2.61526 14.80753,-6.83925 z" />
  <path
     style="stroke-width:0.666186"
     id="path240"
     d="m 411.57572,161.00707 c 0.98572,0.0145 1.98904,0.0302 2.96066,0.18959 8.53322,1.40086 23.92275,10.37856 28.67728,17.0553 0.96669,1.35739 1.68043,2.95603 1.19075,4.57734 -0.35511,1.17725 -1.38451,1.66163 -2.459,2.26254 -0.7532,0.1751 -1.3528,0.27336 -2.13137,0.17006 -8.73825,-1.1615 -23.08781,-12.01687 -28.30878,-18.29804 -1.24993,-1.50416 -2.29835,-2.98816 -1.98622,-4.91056 0.67358,-0.86104 0.95401,-0.78357 2.05668,-1.04623 z"
     fill="#f6fa96" />
  <path
     style="stroke-width:0.666186"
     id="path242"
     d="m 272.86285,370.823 c 9.07927,2.17372 18.04722,4.01361 27.36605,5.1644 5.25126,0.64878 10.56242,0.9064 15.80523,1.58541 3.61733,0.46863 7.03597,1.56588 10.5751,2.33056 3.76318,0.81381 7.82863,1.16969 11.69046,1.43424 12.15689,0.83333 26.83056,0.54548 38.71548,-1.91232 4.35926,-0.90136 8.40357,-2.71353 12.79666,-3.52293 15.7559,-2.90438 31.72248,-5.79175 47.07607,-10.1266 1.51204,-0.42705 3.0586,-1.11174 4.55725,-0.47493 1.15904,2.16994 1.1978,7.25435 1.60152,9.90866 3.12202,20.70924 3.95202,39.34742 3.60254,60.20342 -0.43684,8.08704 -1.214,30.02832 -3.98935,36.79891 -0.49321,1.20371 -1.14143,1.99547 -2.21522,2.83069 -2.90218,2.25812 -8.38807,5.71113 -12.04415,6.62824 -4.42832,1.11174 -9.84657,0.85853 -14.44961,1.23456 -15.51495,1.25788 -31.07075,2.06916 -46.64417,2.43324 -17.62306,0.51083 -35.37294,0.7042 -52.9509,-0.75271 -4.87079,-0.40313 -9.68874,-1.18292 -14.54191,-1.71076 -3.65961,-0.39808 -7.72647,-0.3773 -11.2656,-1.30007 -3.94214,-1.02734 -10.07273,-3.94369 -12.74944,-6.77375 -3.7188,-3.93171 -6.04815,-26.83671 -6.3779,-32.84074 -0.54323,-3.53489 -0.38541,-7.30599 -0.4615,-10.88183 -0.22617,-10.67207 -0.0387,-21.4632 1.08858,-32.09433 0.61158,-5.77223 1.69734,-11.50478 1.97424,-17.30221 0.49674,-3.56449 0.43262,-7.26253 0.84057,-10.85915 z" />
  <path
     style="stroke-width:0.666186"
     id="path244"
     d="m 413.90931,381.62609 c 0.10427,-0.13794 0.18601,-0.29163 0.31213,-0.4132 1.3373,-1.28496 26.50997,-6.09725 28.82523,-6.0034 3.12202,20.70924 3.95202,39.34742 3.60254,60.20342 -0.43684,8.08704 -1.214,30.02832 -3.98935,36.79891 -0.49321,1.20371 -1.14143,1.99547 -2.21522,2.83069 -2.90218,2.25812 -8.38807,5.71113 -12.04415,6.62824 -4.42832,1.11174 -9.84657,0.85853 -14.44961,1.23456 -15.51495,1.25788 -31.07075,2.06916 -46.64417,2.43324 -17.62306,0.51083 -35.37294,0.7042 -52.9509,-0.75271 -4.87079,-0.40313 -9.68874,-1.18292 -14.54191,-1.71076 -3.65961,-0.39808 -7.72647,-0.3773 -11.2656,-1.30007 -3.94214,-1.02734 -10.07273,-3.94369 -12.74944,-6.77375 -3.7188,-3.93171 -6.04815,-26.83671 -6.3779,-32.84074 -0.54323,-3.53489 -0.38541,-7.30599 -0.4615,-10.88183 -0.22617,-10.67207 -0.0387,-21.4632 1.08858,-32.09433 0.61158,-5.77223 1.69734,-11.50478 1.97424,-17.30221 3.32071,0.0882 14.82516,1.25599 17.58572,2.68519 -0.5376,0.16062 -1.08083,0.31305 -1.60152,0.51587 -1.17525,0.45855 -1.87279,1.28811 -2.27369,2.36646 -3.51236,9.44948 -1.59166,24.65166 -1.49372,34.81353 0.1085,11.34605 -0.40373,22.80611 1.19849,34.09043 0.51012,3.5941 1.24148,6.93058 2.99378,10.21038 2.27933,1.37503 4.70733,2.19702 7.39813,2.6518 10.57088,1.78697 22.18665,1.61501 32.94001,1.74792 9.1603,0.114 18.34878,0.49949 27.50626,0.44469 7.32767,-0.0441 14.66592,-0.48816 21.9957,-0.62232 12.31895,-0.22613 25.06065,0.25573 37.29927,-1.10103 3.39539,-0.37604 8.13584,-0.99144 10.93515,-2.87919 2.71053,-1.82792 3.57506,-7.50944 4.04008,-10.36532 1.83192,-11.24842 3.75896,-63.43911 -3.34254,-71.24397 -2.66051,-2.92454 -9.35829,-2.98375 -13.29409,-3.3705 z"
     fill="#c4dd2d" />
  <path
     style="stroke-width:0.666186"
     id="path246"
     d="m 269.42096,441.96052 c 1.22598,0.20156 2.08698,0.58642 2.87188,1.45125 1.88336,2.07608 2.93671,4.99621 4.10843,7.44267 4.49102,9.37641 9.39493,20.8182 20.69082,25.211 5.35132,2.08049 12.74592,2.16679 18.52704,2.60014 23.07371,1.7284 42.57942,1.59108 65.62214,0.5732 7.41363,-0.32754 14.89068,-0.41006 22.26485,-1.21189 6.58575,-0.71555 14.34463,-2.03452 20.49494,-4.36319 7.27342,-2.75321 11.81869,-13.36293 13.50829,-19.76819 1.12733,-4.27438 1.50076,-8.96195 3.41582,-13.02468 1.20625,-2.55795 4.64955,-3.19476 5.72404,-5.45792 -0.43684,8.08704 -1.214,30.02832 -3.98935,36.79891 -0.49321,1.20371 -1.14143,1.99547 -2.21522,2.83069 -2.90218,2.25812 -8.38807,5.71113 -12.04415,6.62824 -4.42832,1.11174 -9.84657,0.85853 -14.44961,1.23456 -15.51495,1.25788 -31.07075,2.06916 -46.64417,2.43324 -17.62306,0.51083 -35.37294,0.7042 -52.9509,-0.75271 -4.87079,-0.40313 -9.68874,-1.18292 -14.54191,-1.71076 -3.65961,-0.39808 -7.72647,-0.3773 -11.2656,-1.30007 -3.94214,-1.02734 -10.07273,-3.94369 -12.74944,-6.77375 -3.7188,-3.93171 -6.04815,-26.83671 -6.3779,-32.84074 z"
     fill="#92b530" />
  <path
     style="stroke-width:0.666186"
     id="path248"
     d="m 272.86285,370.823 c 9.07927,2.17372 18.04722,4.01361 27.36605,5.1644 5.25126,0.64878 10.56242,0.9064 15.80523,1.58541 3.61733,0.46863 7.03597,1.56588 10.5751,2.33056 3.76318,0.81381 7.82863,1.16969 11.69046,1.43424 12.15689,0.83333 26.83056,0.54548 38.71548,-1.91232 4.35926,-0.90136 8.40357,-2.71353 12.79666,-3.52293 15.7559,-2.90438 31.72248,-5.79175 47.07607,-10.1266 1.51204,-0.42705 3.0586,-1.11174 4.55725,-0.47493 1.15904,2.16994 1.1978,7.25435 1.60152,9.90866 -2.31526,-0.0938 -27.48793,4.71844 -28.82523,6.0034 -0.12612,0.12157 -0.20786,0.27526 -0.31213,0.4132 -7.35939,-0.008 -14.48343,0.63744 -21.8097,1.0708 -4.07109,0.24062 -8.15274,0.21668 -12.2196,0.53414 -4.83627,0.37793 -9.66478,1.00025 -14.51655,1.19237 -8.07664,0.31998 -16.23502,-0.0246 -24.3173,-0.11968 -12.95942,-0.15243 -25.84415,-0.24188 -38.80004,-0.59398 -4.16479,-0.11338 -8.57267,0.94986 -12.63812,0.6576 -2.76056,-1.4292 -14.26501,-2.597 -17.58572,-2.68519 0.49674,-3.56449 0.43262,-7.26253 0.84057,-10.85915 z"
     fill="#92b530" />
  <path
     style="stroke-width:0.666186"
     id="path250"
     d="m 404.22621,384.67031 c 4.00838,-0.46044 17.47509,-0.6198 20.29202,1.6673 3.66595,2.97681 3.84209,19.64536 4.00767,24.50237 0.2924,8.56954 1.80867,49.94139 -4.45861,54.12947 -5.21251,3.48324 -47.71866,2.93399 -56.40547,3.17964 -8.71782,0.24691 -17.368,1.00718 -26.10977,0.97631 -9.43509,-0.0328 -18.86172,-0.62358 -28.27848,-1.09158 -4.34447,-0.25321 -8.72698,-0.36911 -13.05101,-0.83018 -3.18331,-0.33951 -7.72224,-0.99521 -9.70072,-3.48577 -1.20061,-1.51108 -1.64731,-3.85172 -1.92492,-5.67774 -1.50076,-9.8841 -1.24641,-20.38296 -1.37746,-30.36783 -0.12753,-9.73482 -0.50801,-19.55844 -0.0585,-29.28696 0.17121,-3.69236 0.52421,-7.44519 1.26613,-11.08087 8.66639,-2.13907 18.29664,-0.42832 27.14974,-0.3036 7.05782,0.0995 14.12339,-0.10078 21.18262,-0.0359 7.29315,0.0674 14.59123,0.38863 21.88438,0.30675 8.41907,-0.0945 16.55702,-1.02545 24.92748,-1.60179 6.86828,-0.47304 13.77743,-0.59587 20.65488,-0.99962 z"
     fill="#4a4e57" />
  <path
     style="stroke-width:0.666186"
     id="path252"
     d="m 392.38638,393.95287 c 11.22966,-0.76027 21.04028,6.72776 21.96118,16.7624 0.92089,10.03463 -7.3932,18.85108 -18.6123,19.73732 -11.31843,0.8938 -21.28759,-6.61942 -22.21694,-16.7435 -0.92864,-10.12345 7.53764,-18.98903 18.86806,-19.75622 z" />
  <path
     style="stroke-width:0.666186"
     id="path254"
     d="m 377.98468,417.90851 c -2.89655,-6.58163 -0.41641,-14.08099 6.01926,-18.19601 6.43497,-4.11501 15.17604,-3.78999 21.20728,0.78735 5.47884,4.15911 7.501,10.91899 5.07441,16.96711 -2.42588,6.04875 -8.7925,10.11904 -15.97926,10.2173 -7.18676,0.0983 -13.68937,-3.79629 -16.32169,-9.77575 z"
     fill="#feaf22" />
  <path
     style="stroke-width:0.666186"
     id="path256"
     d="m 405.21122,400.49985 c 5.47884,4.15911 7.501,10.91899 5.07441,16.96711 -2.42588,6.04875 -8.7925,10.11904 -15.97926,10.2173 -7.18676,0.0983 -13.68937,-3.79629 -16.32169,-9.77575 4.26203,0.55681 6.60336,4.355 12.77129,4.38649 4.34728,0.0227 8.86789,-1.42668 11.96384,-4.19627 5.09343,-4.55593 4.29373,-8.69929 1.96438,-14.09359 -0.29311,-0.67775 -0.85889,-1.60053 -0.78632,-2.33371 0.0423,-0.4321 0.93851,-0.89821 1.31335,-1.17158 z"
     fill="#fe9316" />
  <path
     style="stroke-width:0.666186"
     id="path258"
     d="m 388.23919,399.37614 c 0.62638,-0.0365 1.49936,-0.16061 2.1053,-0.0428 0.96951,0.18771 1.12311,0.52217 1.59236,1.21063 -0.1233,1.82729 -1.03362,2.48867 -2.48084,3.63568 -1.29361,-0.0372 -1.96015,-0.27841 -2.98391,-0.92719 -0.45939,-0.77538 -0.68063,-1.08339 -0.42557,-1.99861 0.2607,-0.93348 1.34787,-1.41534 2.19266,-1.87768 z"
     fill="#fefefe" />
  <path
     style="stroke-width:0.666186"
     id="path260"
     d="m 317.88577,396.33193 1.28516,-0.0598 c 1.79317,-0.075 3.81603,-0.32565 5.1632,1.01096 1.88124,1.86634 1.33518,6.55139 1.45214,8.98777 2.9663,-0.0365 8.02169,-0.65129 10.64697,0.55619 0.31213,0.53729 0.50801,0.98702 0.62497,1.58919 0.43825,2.25686 0.74545,8.10405 -0.9061,9.90551 -0.91455,0.99773 -8.41132,0.5902 -9.91561,0.59146 -0.16416,2.74628 0.86382,8.5519 -1.08928,10.66515 -1.17807,1.27362 -3.43133,1.10481 -5.11881,1.20937 -2.28285,0.0573 -5.14416,0.53414 -6.99652,-0.919 -2.1377,-1.67737 -1.46412,-8.13554 -1.59799,-10.75459 -2.27792,0.0113 -4.74538,0.16755 -7.00075,-0.0655 -1.57122,-0.16188 -3.10581,-0.54043 -4.09222,-1.7265 -1.81783,-2.18506 -0.81098,-7.36142 -0.51365,-9.9622 3.8414,-1.0223 7.64686,-1.06954 11.63057,-1.11993 -0.0233,-2.27135 -0.99628,-7.19261 1.05124,-8.89077 1.47329,-1.22197 3.49544,-0.98262 5.37668,-1.01726 z" />
  <path
     style="stroke-width:0.666186"
     id="path262"
     d="m 316.94234,398.7639 c 1.74807,0.0258 3.49121,0.0202 5.22801,0.22109 0.21912,3.3138 0.0366,6.75484 0.66231,10.02204 3.71034,0.0529 7.43125,0.012 11.13947,0.10141 l -0.0183,6.61879 c -3.62226,0.0894 -7.24735,0.14613 -10.86116,0.3899 -0.19728,3.8851 -0.322,7.7721 -0.37625,11.66099 l -7.29597,0.0283 c -0.1395,-3.88259 -0.21208,-7.77651 -0.55309,-11.65028 -3.84069,-0.012 -7.71168,0.0649 -11.54461,-0.14865 -0.22477,-2.1964 -0.26986,-4.31091 -0.19236,-6.51486 3.92806,-0.11464 7.86246,-0.19149 11.7877,-0.35148 0.1388,-3.31947 0.20221,-6.57218 -0.038,-9.89228 0.74615,-0.53666 1.14354,-0.42706 2.06232,-0.48501 z"
     fill="#feaf22" />
  <path
     style="stroke-width:0.666186"
     id="path264"
     d="m 314.88002,399.24891 c 0.74615,-0.53666 1.14354,-0.42706 2.06232,-0.48501 1.1386,0.13605 1.69663,-0.0239 2.41531,0.81255 0.0944,0.91899 0.0599,0.9845 -0.44812,1.79201 -0.88143,0.45729 -0.98007,0.49698 -1.99326,0.44847 -0.96458,-0.56122 -1.63534,-0.96812 -1.90449,-2.00995 -0.0479,-0.18518 -0.0874,-0.37226 -0.13176,-0.55807 z"
     fill="#f6fa96" />
  <path
     style="stroke-width:0.666186"
     id="path266"
     d="m 353.1488,438.84891 c 4.45931,-0.16188 21.01069,-1.01285 23.96642,1.09914 0.76095,1.1067 0.97726,2.11829 1.06111,3.41459 0.17685,2.75447 0.65526,7.1882 -1.67551,9.3298 -2.73167,2.51007 -12.48593,1.30511 -16.3703,1.24212 -5.11599,-0.0687 -21.2256,1.01789 -24.79079,-1.05064 -0.82155,-0.47682 -1.15481,-1.1741 -1.35492,-2.00806 -0.508,-2.10947 -0.892,-8.66213 0.56649,-10.42076 1.24923,-1.50604 15.79748,-1.49659 18.5975,-1.60619 z" />
  <path
     style="stroke-width:0.666186"
     id="path268"
     d="m 351.69313,442.18287 23.00114,-0.61351 c -0.001,3.145 -0.0465,6.26543 -0.24731,9.40728 -6.13481,-0.11338 -12.26681,-0.36407 -18.40303,-0.27463 -6.21373,0.0901 -12.63319,0.70043 -18.81592,0.0101 l -0.1698,-5.47556 c 7e-4,-0.90388 0.0726,-1.69501 0.24238,-2.58629 2.51959,-1.03552 11.20359,-0.46737 14.39254,-0.46737 z"
     fill="#feaf22" />
  <path
     style="stroke-width:0.666186"
     id="path270"
     d="m 337.05821,445.23653 c 7e-4,-0.90388 0.0726,-1.69501 0.24238,-2.58629 2.51959,-1.03552 11.20359,-0.46737 14.39254,-0.46737 -0.0493,0.57634 0.10498,0.96372 -0.42416,1.36369 -2.97758,2.25057 -10.4814,1.47455 -14.21076,1.68997 z"
     fill="#f6fa96" />
  <path
     style="stroke-width:0.666186"
     id="path272"
     d="m 285.50943,484.31436 c 9.37943,1.96838 18.94134,3.16074 28.56454,3.56135 -5.09766,6.35424 -10.2834,12.85461 -14.62646,19.64662 -2.11657,3.31003 -3.38693,7.66754 -6.01644,10.62043 l -0.0662,0.18833 c 1.37323,5.19085 1.15622,10.30171 1.70016,15.5694 0.63906,6.19173 1.91083,12.58062 3.47783,18.63945 0.66513,2.57243 1.4754,5.01448 2.63444,7.44393 1.51838,3.18027 9.70353,15.83017 7.23608,18.94494 -1.25487,1.58415 -18.3051,8.17774 -21.47995,9.22587 -4.20003,1.38762 -8.57338,2.34126 -12.77693,3.71063 -4.86586,1.58541 -10.12135,4.2328 -15.28031,4.70017 -3.20586,0.29037 -5.66627,-0.46422 -8.32255,-2.01499 1.18793,-1.94633 2.3674,-3.78622 3.88437,-5.54421 1.40776,-1.67927 4.67773,-3.80764 5.21745,-5.79554 0.12753,-0.46863 -0.0923,-0.62358 -0.322,-1.02167 l -0.8455,-0.22802 c -2.34274,0.54548 -3.81532,2.18128 -5.46828,3.66339 -1.7988,-0.61728 -2.26946,-1.3492 -3.12765,-2.80171 l -0.24167,-0.41824 c -1.11958,-0.64248 -2.38008,-0.31368 -3.60676,-0.62295 -0.83846,-0.21101 -0.83282,-0.39494 -1.22668,-1.04749 l 0.3537,-0.79806 -0.322,-0.58516 c -5.48025,-1.77753 -9.09125,8.63252 -15.23874,8.66338 -0.89905,0.004 -1.27319,-0.24502 -1.90097,-0.77034 -0.27479,-0.66579 -0.35088,-1.13505 -0.13105,-1.83485 1.03855,-3.30498 9.16734,-9.4438 12.52327,-11.17976 6.33281,-3.80007 14.55107,-6.32337 21.71317,-8.54874 3.30873,-0.64563 6.67664,-1.33094 10.07344,-1.36748 3.96328,0.6935 13.56395,4.66553 17.05516,3.36987 0.12471,-0.53792 0.20856,-0.39998 -0.19728,-0.8938 -2.04048,-2.47984 -12.49016,-4.56538 -15.90176,-5.14235 -2.64078,-2.55228 -4.62841,-12.19954 -5.68529,-15.78734 -2.43997,-6.99357 -2.75845,-15.01637 -2.99941,-22.3148 -0.30861,-2.15798 -0.54958,-4.2517 0.11625,-6.37692 3.0586,-8.04736 7.94912,-16.44494 13.44065,-23.34592 l 2.33499,-2.96107 c 1.57897,-2.46661 3.15795,-4.56412 5.45841,-6.54635 z"
     fill="#92b530" />
  <path
     style="stroke-width:0.666186"
     id="path274"
     d="m 285.50943,484.31436 c 9.37943,1.96838 18.94134,3.16074 28.56454,3.56135 -5.09766,6.35424 -10.2834,12.85461 -14.62646,19.64662 -2.11657,3.31003 -3.38693,7.66754 -6.01644,10.62043 l -0.0662,0.18833 c -0.0726,0.20471 -0.15078,0.4069 -0.21842,0.61287 -0.49885,1.51865 -0.42557,3.21618 -0.62567,4.78458 -0.51646,4.04447 -1.61914,15.85978 -2.94094,18.77424 -0.61298,1.35172 -1.66845,2.39922 -3.05859,3.15381 -4.38181,2.37844 -11.27124,2.40615 -16.24208,2.36143 -0.55028,-0.89947 -0.90821,-2.06727 -1.40141,-3.02406 l -1.71919,0.86546 c -2.43997,-6.99357 -2.75845,-15.01637 -2.99941,-22.3148 -0.30861,-2.15798 -0.54958,-4.2517 0.11625,-6.37692 3.0586,-8.04736 7.94912,-16.44494 13.44065,-23.34592 l 2.33499,-2.96107 c 1.57897,-2.46661 3.15795,-4.56412 5.45841,-6.54635 z"
     fill="#c4dd2d" />
  <path
     style="stroke-width:0.666186"
     id="path276"
     d="m 285.50943,484.31436 c 9.37943,1.96838 18.94134,3.16074 28.56454,3.56135 -5.09766,6.35424 -10.2834,12.85461 -14.62646,19.64662 -2.11657,3.31003 -3.38693,7.66754 -6.01644,10.62043 -1.8439,-3.14248 6.50824,-14.46648 5.03566,-17.8143 -1.66916,-3.79315 -14.30587,-7.86974 -18.41571,-9.46775 1.57897,-2.46661 3.15795,-4.56412 5.45841,-6.54635 z"
     fill="#92b530" />
  <path
     style="stroke-width:0.666186"
     id="path278"
     d="m 266.14324,521.93023 c 0.19939,0.0762 0.4002,0.15054 0.59819,0.22865 3.22206,1.27047 5.89455,3.76039 9.77258,2.55795 2.51959,-0.78106 5.00254,-2.03389 7.32979,-3.19098 -1.13298,3.50214 -2.75,9.10556 -6.46386,11.07835 -1.94888,1.03426 -4.0274,0.80184 -6.11438,0.27589 -1.09281,-0.27589 -2.33147,-0.59776 -3.36157,-1.01726 -0.57987,-3.16012 -0.27972,-7.0131 -1.76075,-9.9326 z"
     fill="#92b530" />
  <path
     style="stroke-width:0.666186"
     id="path280"
     d="m 264.27538,517.1677 c 3.0586,-8.04736 7.94912,-16.44494 13.44065,-23.34592 0.80393,0.30676 1.60222,0.62737 2.39347,0.96057 0.61933,2.44898 -7.18323,14.61514 -9.05954,17.27827 -1.21823,1.73092 -3.26645,4.58806 -5.60356,5.06047 -0.40725,0.0825 -0.76447,0.0561 -1.17102,0.0466 z"
     fill="#f6fa96" />
  <path
     style="stroke-width:0.666186"
     id="path282"
     d="m 264.15913,523.54462 c 0.0423,-0.57445 -0.0219,-2.14097 0.40795,-2.47796 l 1.57616,0.86357 c 1.48103,2.9195 1.18088,6.77248 1.76075,9.9326 l 0.97374,13.13113 -1.71919,0.86546 c -2.43997,-6.99357 -2.75845,-15.01637 -2.99941,-22.3148 z"
     fill="#f6fa96" />
  <path
     style="stroke-width:0.666186"
     id="path284"
     d="m 261.81427,565.68052 c 3.30873,-0.64563 6.67664,-1.33094 10.07344,-1.36748 4.63898,4.40413 8.43598,7.19199 15.53396,7.35639 3.68991,0.085 7.27977,-0.001 10.96051,0.39934 -2.26735,5.15621 -5.75293,8.01272 -11.39946,10.20786 -5.21252,2.02695 -10.55256,3.43285 -15.8926,5.12597 -3.22699,1.02293 -6.48147,2.47102 -9.82261,3.13996 -1.37041,0.27399 -2.90993,0.37352 -4.24793,-0.092 -0.91667,-0.31935 -1.78683,-0.93285 -2.5816,-1.44431 1.40776,-1.67927 4.67773,-3.80764 5.21745,-5.79554 0.12753,-0.46863 -0.0923,-0.62358 -0.322,-1.02167 l -0.8455,-0.22802 c -2.34274,0.54548 -3.81532,2.18128 -5.46828,3.66339 -1.7988,-0.61728 -2.26946,-1.3492 -3.12765,-2.80171 l -0.24167,-0.41824 c -1.11958,-0.64248 -2.38008,-0.31368 -3.60676,-0.62295 -0.83846,-0.21101 -0.83282,-0.39494 -1.22668,-1.04749 l 0.3537,-0.79806 -0.322,-0.58516 c -5.48025,-1.77753 -9.09125,8.63252 -15.23874,8.66338 -0.89905,0.004 -1.27319,-0.24502 -1.90097,-0.77034 -0.27479,-0.66579 -0.35088,-1.13505 -0.13105,-1.83485 1.03855,-3.30498 9.16734,-9.4438 12.52327,-11.17976 6.33281,-3.80007 14.55107,-6.32337 21.71317,-8.54874 z"
     fill="#c4dd2d" />
  <path
     style="stroke-width:0.666186"
     id="path286"
     d="m 261.81427,565.68052 c 0.55169,1.00907 1.01531,1.89153 0.51012,3.02028 -0.73347,1.63769 -11.83772,4.49168 -14.21287,5.211 -2.29483,0.69476 -5.38232,1.63266 -7.65178,0.5184 -0.1233,-0.0605 -0.23886,-0.13417 -0.35864,-0.20094 6.33281,-3.80007 14.55107,-6.32337 21.71317,-8.54874 z"
     fill="#f6fa96" />
  <path
     style="stroke-width:0.666186"
     id="path288"
     d="m 268.87773,544.99396 c 0.4932,0.95679 0.85113,2.12459 1.40141,3.02406 1.11888,2.5548 3.79419,10.97946 2.76691,13.27285 -0.055,0.12346 -0.13528,0.23684 -0.20222,0.35589 -2.64078,-2.55228 -4.62841,-12.19954 -5.68529,-15.78734 z"
     fill="#b6d24d" />
  <path
     style="stroke-width:0.666186"
     id="path290"
     d="m 446.38852,370.53389 c 3.77727,0.52406 7.45309,1.51486 11.1282,2.43701 3.71527,1.03237 7.09023,2.76329 10.59905,4.23595 4.28528,1.79831 8.67061,3.15003 12.76777,5.31493 9.68592,5.11779 18.82155,11.90854 29.19585,15.80624 -0.0444,1.90098 -0.51153,4.72978 1.07801,6.21441 0.68627,-0.20156 0.48264,-0.0176 0.80182,-0.5776 0.83916,-1.47077 0.62567,-3.62182 0.65879,-5.24313 11.28814,-1.07584 21.19318,-4.35752 28.51663,-12.50944 3.13751,-3.49269 6.01714,-7.31103 8.58817,-11.15268 4.20355,1.82792 8.67554,2.96611 13.34623,3.25586 1.25698,-0.0882 2.58653,0.0233 3.84985,0.0529 l -0.16206,0.54548 c -3.34818,10.8308 -13.73797,24.96345 -24.86477,30.55427 -5.68881,2.85903 -23.95656,9.27752 -29.84477,9.1591 -7.45238,-0.15054 -28.71743,-11.52241 -36.45165,-15.15557 -8.2387,-3.86999 -17.2757,-8.22184 -26.21405,-10.47429 -0.89412,-7.50567 -1.80515,-14.98802 -2.99307,-22.46345 z"
     fill="#c4dd2d" />
  <path
     style="stroke-width:0.666186"
     id="path292"
     d="m 446.38852,370.53389 c 3.77727,0.52406 7.45309,1.51486 11.1282,2.43701 -3.29746,4.59687 -2.85921,8.89644 -2.62881,14.14587 5.41262,1.65029 10.68784,3.43159 15.76718,5.80624 10.33837,4.83308 33.53398,18.74023 43.78497,19.74237 3.97667,0.38863 8.50856,-1.45062 12.00118,-3.00013 4.32192,-1.91735 8.48037,-4.20319 12.62333,-6.40715 14.13536,-7.52141 16.75712,-11.10039 23.82692,-24.34742 0.19376,-0.36345 0.1395,-0.20094 0.17755,-0.59524 1.25698,-0.0882 2.58653,0.0233 3.84985,0.0529 l -0.16206,0.54548 c -3.34818,10.8308 -13.73797,24.96345 -24.86477,30.55427 -5.68881,2.85903 -23.95656,9.27752 -29.84477,9.1591 -7.45238,-0.15054 -28.71743,-11.52241 -36.45165,-15.15557 -8.2387,-3.86999 -17.2757,-8.22184 -26.21405,-10.47429 -0.89412,-7.50567 -1.80515,-14.98802 -2.99307,-22.46345 z"
     fill="#92b530" />
  <path
     style="stroke-width:0.666186"
     id="path294"
     d="m 424.08279,525.18357 c 0.10217,0.0787 0.20504,0.15621 0.3065,0.2362 5.27522,4.14588 4.74889,16.40904 7.74197,18.12483 2.00595,1.15017 8.7312,1.36244 11.22543,1.25158 3.4433,-0.15306 7.71872,-1.03805 11.0359,-0.11842 l 1.15059,0.69602 c -0.2452,4.94016 -0.6912,9.88031 -0.85889,14.8211 -3.00364,1.23331 -5.9791,2.31293 -9.12014,3.23885 -2.35965,0.69476 -4.91588,1.18355 -7.15646,2.12648 -0.75672,0.31809 -1.21963,0.64815 -1.74878,1.22008 l 0.0324,0.55555 c 2.77676,1.25473 9.60277,-1.29881 12.59866,-2.13592 6.83447,-2.52772 10.92528,-1.60368 17.82105,-0.38423 6.27643,0.73192 11.86237,4.50176 17.38772,7.10695 -0.25294,0.52154 -0.6306,1.11048 -0.76165,1.66163 l 2.63162,1.53565 c -1.47258,0.0327 -2.95221,0.0983 -4.42409,0.0586 -0.86522,-0.0296 -0.98571,0.0422 -1.74807,0.42643 -0.41429,0.73948 -0.57705,1.02545 -0.34736,1.88902 0.93992,3.52859 8.46699,6.45943 8.57056,10.54673 -0.75249,1.24212 -1.67973,1.64462 -3.16922,2.0301 -2.03977,0.52785 -4.40576,0.68972 -6.51388,0.96561 -2.16518,-3.09901 -6.90774,-9.79843 -11.17963,-10.68593 -0.22829,-0.0472 -0.46362,-0.0624 -0.69543,-0.0939 l -0.45375,0.34391 c 0.0698,3.08516 5.19913,7.14978 7.30936,9.50869 0.59819,0.6387 1.37534,1.62887 1.65084,2.43197 0.27478,0.80121 0.1381,0.98702 -0.27972,1.65722 -0.82859,0.41761 -1.55291,0.69413 -2.48578,0.88561 -2.33921,0.47367 -4.76651,0.48123 -7.10925,0.0227 -4.05206,-0.76656 -8.0076,-2.58629 -11.97018,-3.71251 -5.03989,-1.43172 -10.41516,-2.24364 -15.27045,-4.13203 -3.91326,-1.52179 -7.57287,-3.78621 -11.33605,-5.58956 -3.35452,-1.60746 -6.9479,-2.80927 -10.1594,-4.64726 0.56578,-3.57143 1.74526,-7.04396 3.49685,-10.29352 1.03786,-1.92366 2.3822,-3.86621 2.95785,-5.9486 2.28003,-8.23884 1.23513,-26.51107 0.87086,-35.59962 z"
     fill="#92b530" />
  <path
     style="stroke-width:0.666186"
     id="path296"
     d="m 449.28999,565.19992 c 6.83447,-2.52772 10.92528,-1.60368 17.82105,-0.38423 6.27643,0.73192 11.86237,4.50176 17.38772,7.10695 -0.25294,0.52154 -0.6306,1.11048 -0.76165,1.66163 l 2.63162,1.53565 c -1.47258,0.0327 -2.95221,0.0983 -4.42409,0.0586 -0.86522,-0.0296 -0.98571,0.0422 -1.74807,0.42643 -0.41429,0.73948 -0.57705,1.02545 -0.34736,1.88902 0.93992,3.52859 8.46699,6.45943 8.57056,10.54673 -0.75249,1.24212 -1.67973,1.64462 -3.16922,2.0301 -2.03977,0.52785 -4.40576,0.68972 -6.51388,0.96561 -2.16518,-3.09901 -6.90774,-9.79843 -11.17963,-10.68593 -0.22829,-0.0472 -0.46362,-0.0624 -0.69543,-0.0939 l -0.45375,0.34391 c 0.0698,3.08516 5.19913,7.14978 7.30936,9.50869 -1.74526,1.04749 -3.99429,0.8686 -5.9946,0.61224 -4.58826,-0.58831 -8.74037,-2.48488 -13.07145,-3.8492 -9.15325,-2.8836 -21.5807,-5.08566 -27.67113,-12.47102 -0.11696,-1.4525 -0.0416,-2.9195 -0.0162,-4.37515 6.4554,-1.31142 13.1877,0.88435 19.34153,-2.0194 1.5205,-0.71744 2.46464,-1.31393 2.98462,-2.80675 z"
     fill="#c4dd2d" />
  <path
     style="stroke-width:0.666186"
     id="path298"
     d="m 467.11104,564.81569 c 6.27643,0.73192 11.86237,4.50176 17.38772,7.10695 -0.25294,0.52154 -0.6306,1.11048 -0.76165,1.66163 -3.59691,-0.42328 -14.52219,-3.51474 -16.54575,-6.58667 -0.51082,-0.77476 -0.24167,-1.37125 -0.0803,-2.18191 z"
     fill="#f6fa96" />
  <path
     style="stroke-width:0.666186"
     id="path300"
     d="m 254.05539,377.67611 c 4.65167,-1.09158 9.30192,-2.27387 14.09802,-2.72991 -0.0712,7.2449 -0.71938,14.17611 -1.8763,21.34101 -14.96537,1.64084 -38.41393,5.50642 -50.93861,12.95665 -4.66364,2.77463 -8.57831,6.67044 -12.01316,10.58579 -4.99057,5.68971 -9.63096,11.89278 -12.94462,18.49898 -3.45669,-1.06639 -7.00709,-2.13719 -10.30665,-3.55127 -1.27882,-0.42077 -2.6133,-0.72689 -3.92172,-1.06891 3.02901,-5.19841 5.29847,-11.11929 9.24908,-15.82766 6.33209,-9.78961 21.58916,-24.03815 32.74061,-29.47151 9.31671,-6.40022 24.74147,-8.16074 35.91335,-10.73317 z"
     fill="#c4dd2d" />
  <path
     style="stroke-width:0.666186"
     id="path302"
     d="m 254.05539,377.67611 c 4.65167,-1.09158 9.30192,-2.27387 14.09802,-2.72991 -0.0712,7.2449 -0.71938,14.17611 -1.8763,21.34101 -14.96537,1.64084 -38.41393,5.50642 -50.93861,12.95665 -4.66364,2.77463 -8.57831,6.67044 -12.01316,10.58579 -4.99057,5.68971 -9.63096,11.89278 -12.94462,18.49898 -3.45669,-1.06639 -7.00709,-2.13719 -10.30665,-3.55127 1.29432,-0.4088 2.68446,-0.68658 4.00908,-1.01978 1.74878,-1.94004 3.08256,-4.18493 4.5953,-6.27677 2.0144,-2.77085 4.28739,-5.38422 6.7936,-7.81367 6.75907,-6.60683 13.35186,-9.24918 21.30591,-14.12005 7.33754,-4.49357 11.09579,-8.34781 20.0419,-11.35991 3.44964,-1.1615 17.83372,-3.88384 19.44933,-4.88032 0.58692,-0.36155 0.69472,-0.50516 0.83071,-1.11803 0.60383,-2.72109 -1.40565,-8.20169 -3.04451,-10.51272 z"
     fill="#92b530" />
  <path
     style="stroke-width:0.666186"
     id="path304"
     d="m 218.14204,388.40928 0.61651,0.43588 c 0.14373,1.30386 0.19587,2.61086 0.33327,3.91345 -7.0543,4.82804 -13.92681,10.43398 -20.34064,15.9297 -2.76408,2.36898 -8.19361,7.50692 -10.97249,9.26933 -0.40936,0.25951 -0.83845,0.33573 -1.31545,0.43336 -0.53126,-0.13228 -0.65456,-0.15117 -1.06181,-0.51021 6.33209,-9.78961 21.58916,-24.03815 32.74061,-29.47151 z"
     fill="#f6fa96" />
  <path
     style="stroke-width:0.666186"
     id="path306"
     d="m 222.80145,388.45338 c 1.70932,-0.68091 3.64623,-1.56841 5.53521,-0.92467 0.30579,0.42013 0.41782,0.35021 0.26563,0.77664 -0.25294,0.70736 -1.00544,1.26732 -1.60856,1.75611 -0.25577,0.1707 -0.51012,0.34455 -0.77716,0.50202 -1.89603,1.12119 -3.2277,1.69186 -5.49294,1.30826 -0.32763,-0.33573 -0.63342,-0.43777 -0.54534,-0.92026 0.22335,-1.22259 1.5522,-1.89657 2.62316,-2.4981 z"
     fill="#f6fa96" />
  <path
     style="stroke-width:0.666186"
     id="path308"
     d="m 404.77437,487.24961 c 8.80378,-0.19023 20.98956,-0.48249 29.1423,-3.35979 1.62196,1.76996 2.92473,3.8133 4.28669,5.74955 l 0.55451,0.96939 c 5.24211,6.64588 9.14762,13.93234 13.27577,21.13755 1.00967,1.76241 2.67319,3.7585 3.23193,5.63681 1.45708,4.89103 0.73418,22.29653 0.27761,27.99066 l -1.15059,-0.69602 c -3.31718,-0.91963 -7.5926,-0.0346 -11.0359,0.11842 -2.49423,0.11086 -9.21948,-0.10141 -11.22543,-1.25158 -2.99308,-1.71579 -2.46675,-13.97895 -7.74197,-18.12483 -0.10146,-0.08 -0.20433,-0.15747 -0.3065,-0.2362 -0.40161,-2.46599 -0.45445,-4.93008 -0.0789,-7.40048 -3.53913,-4.78961 -6.33139,-10.49823 -9.40408,-15.5757 -3.09594,-5.11589 -6.57589,-9.93385 -9.82543,-14.95778 z"
     fill="#c4dd2d" />
  <path
     style="stroke-width:0.666186"
     id="path310"
     d="m 404.77437,487.24961 c 8.80378,-0.19023 20.98956,-0.48249 29.1423,-3.35979 1.62196,1.76996 2.92473,3.8133 4.28669,5.74955 -5.74236,2.14538 -15.28243,4.99307 -19.58814,8.96258 0.93217,4.88536 6.82601,14.90299 5.38866,19.18114 -3.53913,-4.78961 -6.33139,-10.49823 -9.40408,-15.5757 -3.09594,-5.11589 -6.57589,-9.93385 -9.82543,-14.95778 z"
     fill="#92b530" />
  <path
     style="stroke-width:0.666186"
     id="path312"
     d="m 452.95383,518.2196 c -1.11888,-0.90829 -2.23705,-1.84996 -3.11497,-2.95603 -1.70157,-2.14475 -2.73731,-4.81607 -4.02599,-7.16931 -1.7523,-3.19916 -3.78996,-6.33912 -5.38091,-9.60002 -1.02024,-2.09183 -2.64148,-5.72625 -1.67409,-7.88548 5.24211,6.64588 9.14762,13.93234 13.27577,21.13755 1.00967,1.76241 2.67319,3.7585 3.23193,5.63681 1.45708,4.89103 0.73418,22.29653 0.27761,27.99066 l -1.15059,-0.69602 c -1.24007,-5.38548 -1.27318,-10.91458 -1.54093,-16.39203 l -0.17121,-6.71453 c 0.0395,-1.11615 0.17615,-2.23797 0.27338,-3.3516 z"
     fill="#f6fa96" />
  <path
     style="stroke-width:0.666186"
     id="path314"
     d="m 444.40793,523.86271 c 2.25537,-0.66957 3.67088,-2.02948 5.66908,-3.05367 0.80534,-0.41257 1.28587,-0.59083 2.17999,-0.3773 l 0.42345,1.13946 0.17121,6.71453 c -0.44882,0.53855 -0.90398,1.09977 -1.43382,1.57659 -2.41179,2.17184 -6.43356,1.80776 -9.54359,1.72525 -0.0817,-0.0428 -0.16347,-0.085 -0.2445,-0.12913 l -0.40372,-0.22234 c -4.3029,-2.32993 -5.46546,-5.97947 -6.64493,-10.07936 3.33338,0.64437 6.46878,2.0005 9.82683,2.70597 z"
     fill="#92b530" />
  <path
     style="stroke-width:0.666186"
     id="path316"
     d="m 167.97495,443.38783 c 7.85611,3.70118 12.07023,4.62396 20.9346,5.24565 3.72232,3.31444 11.69891,15.39178 11.61718,19.98424 -0.0528,2.9617 -1.09069,9.14399 -3.57506,11.21377 -0.68062,0.56627 -1.4141,0.91585 -2.37304,0.78988 -2.07288,-0.27148 -4.60586,-3.06942 -5.65569,-4.6164 -2.38995,-3.52104 -0.53619,-9.16603 -0.53549,-13.12169 -4.76298,0.72311 -9.31178,1.33598 -12.26117,5.177 -3.9203,5.10581 -3.67793,11.46635 -6.38282,16.76113 -0.63836,1.25095 -1.45849,2.61716 -3.08256,2.90564 -0.94555,0.16818 -2.02216,0.12535 -2.85709,-0.3458 -1.67057,-0.94356 -1.90097,-3.1009 -2.10318,-4.69072 -0.25717,-2.02633 -0.28818,-3.99219 0.062,-6.01096 0.40584,-2.34127 3.32846,-8.61803 2.2596,-10.45036 -0.76729,-0.19211 -0.46502,-0.25132 -1.12381,0.0661 -2.85709,1.37881 -4.28246,5.87616 -5.02086,8.54938 -0.54465,1.97341 -0.53831,8.40828 -2.37868,9.12445 -0.85396,0.33195 -1.92704,0.29038 -2.77042,-0.0157 -1.15482,-0.41824 -2.0743,-1.88839 -2.40193,-2.89431 -1.89322,-5.81506 5.6874,-18.96572 3.70963,-20.03022 -2.60484,1.09096 -5.1956,5.1707 -6.1637,7.58629 -0.78702,1.9646 -1.1224,7.0257 -2.50409,8.30372 -0.76518,-0.51965 -1.05124,-1.20244 -1.17665,-2.04711 -0.92794,-6.23141 5.61201,-15.37162 9.82401,-19.91054 0.94555,-1.01852 1.98059,-2.03578 3.10792,-2.89305 2.08346,-2.06664 4.19369,-4.00478 6.56813,-5.80561 1.34294,-1.14639 2.72393,-1.99672 4.28317,-2.87478 z"
     fill="#c4dd2d" />
  <path
     style="stroke-width:0.666186"
     id="path318"
     d="m 157.12365,452.06822 c 2.08346,-2.06664 4.19369,-4.00478 6.56813,-5.80561 0.2452,0.97065 0.37907,1.32401 -0.20855,2.19702 -1.16961,1.73785 -2.91275,2.89053 -4.96098,3.68355 -0.4615,-0.0189 -0.94203,-0.0132 -1.3986,-0.075 z"
     fill="#b6d24d" />
  <path
     style="stroke-width:0.666186"
     id="path320"
     d="m 449.01098,23.02562 c 11.66791,-1.55442 22.53682,5.63983 24.27855,16.07028 1.74174,10.43046 -6.3032,20.14877 -17.97041,21.70829 -11.67144,1.56009 -22.54669,-5.63479 -24.28913,-16.0689 -1.74173,-10.43404 6.30885,-20.15468 17.98099,-21.70967 z"
     fill="#feaf22" />
  <path
     style="stroke-width:0.666186"
     id="path322"
     d="m 461.91825,30.42005 c 1.36408,0.45068 2.24622,0.93669 3.13258,1.98973 0.97585,1.15854 1.56418,2.62522 1.21893,4.08931 -0.2466,1.04466 -1.11253,1.47153 -2.0292,2.03383 -0.90116,-0.10645 -1.46201,-0.20024 -2.18985,-0.71486 -1.27882,-0.90407 -2.00172,-1.98129 -2.10247,-3.44683 -0.12613,-1.82571 0.65174,-2.64305 1.97001,-3.95118 z"
     fill="#fefefe" />
  <path
     style="stroke-width:0.666186"
     id="path324"
     d="m 197.38147,63.86743 c -3.54547,-7.39455 -1.34787,-15.98979 5.43939,-21.27241 6.78796,-5.28269 16.61339,-6.04497 24.31801,-1.88662 7.67292,4.14153 11.4974,12.22354 9.47948,20.03053 -2.01793,7.80726 -9.4217,13.56941 -18.34949,14.28117 -8.92778,0.71177 -17.35531,-3.7881 -20.88739,-11.15267 z"
     fill="#feaf22" />
  <path
     style="stroke-width:0.666186"
     id="path326"
     d="m 227.13887,40.7084 c 7.67292,4.14153 11.4974,12.22354 9.47948,20.03053 -2.01793,7.80726 -9.4217,13.56941 -18.34949,14.28117 -8.92778,0.71177 -17.35531,-3.7881 -20.88739,-11.15267 4.65307,-1.02268 8.15345,4.77891 18.42769,2.52456 4.7186,-1.03489 8.72134,-3.48393 11.21205,-7.25743 4.02106,-6.09221 1.94676,-12.15368 0.11766,-18.42616 z"
     fill="#fe9316" />
  <path
     style="stroke-width:0.666186"
     id="path328"
     d="m 218.04128,42.53524 c 0.49321,0.0173 0.94978,0.045 1.42044,0.19344 1.24078,0.39109 2.52664,1.19066 2.96208,2.34977 0.30367,0.80764 0.0338,1.34984 -0.35582,2.07212 -0.90891,0.78578 -1.75864,0.97065 -2.95925,1.26751 -0.58692,-0.0438 -1.18159,-0.0869 -1.76005,-0.18777 -1.1823,-0.20609 -2.31386,-0.88158 -2.8578,-1.864 -0.37624,-0.67914 -0.34383,-1.43941 0.0592,-2.10267 0.71445,-1.17555 2.17153,-1.40168 3.49121,-1.7284 z"
     fill="#fefefe" />
  <path
     style="stroke-width:0.666186"
     id="path330"
     d="m 196.62616,260.47916 c 1.89744,-0.98513 3.74204,-1.52179 5.87693,-1.95137 -0.006,22.7639 3.90833,45.30798 9.62814,67.45712 -4.24371,-0.0964 -10.84214,0.28282 -14.05574,-2.52519 -5.09133,-4.44885 -10.61809,-39.33608 -10.39967,-46.6194 0.008,-0.26266 0.0176,-0.52532 0.0303,-0.78798 -0.0254,-1.98349 -0.0986,-4.04131 0.2917,-5.99835 0.95894,-4.8123 4.43395,-6.97027 8.62834,-9.57483 z"
     fill="#4a4e57" />
  <path
     style="stroke-width:0.666186"
     id="path332"
     d="m 187.70612,276.05234 c -0.0254,-1.98349 -0.0986,-4.04131 0.2917,-5.99835 0.95894,-4.8123 4.43395,-6.97027 8.62834,-9.57483 0.40231,1.66982 0.72219,3.23003 0.80322,4.94331 -2.67108,1.84807 -5.26395,3.48198 -7.1318,6.04812 -0.10991,2.94595 -0.0197,5.91269 -0.2001,8.85172 -0.2156,-0.0113 -0.31918,-0.26077 -0.477,-0.39242 -0.4601,-1.28118 -0.72291,-3.01272 -1.91436,-3.87755 z"
     fill="#74747e" />
  <path
     style="stroke-width:0.666186"
     id="path334"
     d="m 493.05593,231.29551 c 2.61049,0.57634 4.96732,1.24401 7.32838,2.4074 5.21533,2.98564 8.83196,4.69199 10.28341,10.49445 0.12964,0.5184 0.23885,1.03364 0.34243,1.55707 0.043,0.0875 0.10075,0.1707 0.12893,0.26329 2.36247,7.77966 3.29534,36.84553 2.05809,44.84691 -0.26069,1.68808 -0.63624,3.1557 -1.71495,4.58553 -2.66826,3.53805 -6.82672,4.35311 -11.20853,5.06677 3.96752,-22.26 -4.05347,-47.08362 -7.21776,-69.22142 z"
     fill="#4a4e57" />
  <path
     style="stroke-width:0.666186"
     id="path336"
     d="m 500.38431,233.70291 c 5.21533,2.98564 8.83196,4.69199 10.28341,10.49445 0.12964,0.5184 0.23885,1.03364 0.34243,1.55707 l -0.3065,0.12031 c -1.23443,-0.1096 -2.19407,-3.92353 -3.69554,-5.15495 -2.17364,-1.78382 -6.23909,-1.46321 -8.39653,-3.17523 -0.79477,-0.63051 -0.76377,-0.78168 -0.75954,-1.66226 0.56648,-1.12434 1.39719,-1.52746 2.53227,-2.17939 z"
     fill="#74747e" />
  <path
     style="stroke-width:0.666186"
     id="path338"
     d="m 551.64351,347.37631 c 0.16769,-4.10053 0.90468,-8.162 0.80181,-12.27009 -0.0831,-3.31569 -1.16538,-6.82413 -0.89482,-10.07306 0.10076,-1.20937 0.43966,-2.78092 1.62336,-3.5393 0.71516,-0.45792 1.61773,-0.46107 2.4273,-0.2425 2.32794,0.62925 4.03938,2.70659 5.03636,4.58049 3.289,6.1804 0.45305,12.98311 2.20112,17.32866 0.30086,0.74767 0.80464,1.09851 1.48245,1.5514 l 0.73981,-0.003 c 3.65327,-3.38183 -0.28254,-17.27953 5.20124,-19.60631 1.69805,0.24502 2.75633,1.26543 3.75684,2.45528 2.02498,2.40551 1.54868,9.2076 0.98572,12.20079 -0.53267,2.83573 -2.12362,5.84908 -1.80938,8.7459 l 0.47348,0.60658 c 0.99629,0.0353 1.73962,-0.22739 2.459,-0.87239 3.02196,-2.7066 2.92755,-11.31014 7.30936,-11.73783 1.29432,0.6261 1.70932,1.54069 2.08486,2.76644 0.39386,1.28495 0.68486,3.10783 0.36498,4.42995 -0.84691,3.50466 -3.55674,7.10443 -5.17517,10.4132 -1.51697,3.1009 -2.53439,6.5243 -4.52061,9.41483 -0.34525,0.50642 -0.71586,0.99773 -1.11184,1.47266 -1.33096,1.6547 -2.75563,3.05618 -4.58614,4.29201 -2.73167,0.2866 -5.27733,0.34833 -8.01605,0.0479 3.34748,-0.85097 0.47489,-4.74867 1.94043,-6.85436 0.62708,-0.13543 1.0766,-0.41384 1.53669,-0.81885 0.60383,-0.53036 0.69472,-1.09221 0.6764,-1.82477 -0.081,-3.29679 -4.0739,-6.79011 -6.62309,-8.84416 -2.74646,-1.33912 -5.46898,-2.55731 -8.36411,-3.61992 z"
     fill="#c4dd2d" />
  <path
     style="stroke-width:0.666186"
     id="path340"
     d="m 560.00762,350.99623 c 3.55534,-0.13542 8.26618,-0.18014 11.0817,2.05908 4.23032,3.36609 1.28446,8.88133 3.99006,11.94318 -1.33096,1.6547 -2.75563,3.05618 -4.58614,4.29201 -2.73167,0.2866 -5.27733,0.34833 -8.01605,0.0479 3.34748,-0.85097 0.47489,-4.74867 1.94043,-6.85436 0.62708,-0.13543 1.0766,-0.41384 1.53669,-0.81885 0.60383,-0.53036 0.69472,-1.09221 0.6764,-1.82477 -0.081,-3.29679 -4.0739,-6.79011 -6.62309,-8.84416 z"
     fill="#92b530" />
  <path
     style="stroke-width:0.666186"
     id="path342"
     d="m 562.47719,369.33837 c -4.15916,-0.7546 -8.61495,-1.94759 -12.29992,-3.86873 -1.71003,-0.89191 -3.03324,-2.06979 -4.31628,-3.39569 -2.85216,-2.9491 -14.28474,-17.52266 -15.10981,-20.83836 -0.42486,-1.70697 -0.0275,-4.10997 1.05758,-5.57948 0.74404,-1.00781 2.36177,-2.28269 3.76037,-2.42316 6.609,-0.66515 6.96129,12.12396 10.91612,14.78269 0.11132,0.075 0.22828,0.14361 0.34172,0.21667 3.31436,2.13278 7.33402,3.12422 10.74913,5.11842 3.83506,2.23986 5.87764,5.17258 6.84152,9.13328 -1.46554,2.10569 1.40705,6.00339 -1.94043,6.85436 z"
     fill="#c4dd2d" />
  <path
     style="stroke-width:0.666186"
     id="path344"
     d="m 236.23717,80.61912 c 3.65326,5.05983 6.38,11.10606 9.59995,16.43234 3.70964,6.13693 7.73704,12.13214 11.36988,18.30119 2.09472,3.55757 3.84702,7.27198 5.81775,10.88435 3.98935,7.31166 8.13935,14.55529 12.07586,21.89026 l -3.7667,1.23268 c -1.96932,-1.16087 -11.33253,-20.20911 -13.12781,-23.32387 -4.58403,-7.95225 -9.63378,-15.70672 -14.30165,-23.62495 -3.87099,-6.5684 -7.30865,-13.42088 -11.5587,-19.79843 z"
     fill="#4a4e57" />
  <path
     style="stroke-width:0.666186"
     id="path346"
     d="m 434.90732,68.13865 c 1.42537,0.70358 2.79579,1.78257 4.18382,2.58881 -5.27945,9.15596 -9.31249,18.76101 -13.6485,28.28167 l -17.67449,39.76943 c -0.53055,0.17322 -1.17736,0.19842 -1.74525,0.177 -0.84621,-0.0321 -1.36197,-0.029 -1.97566,-0.59461 1.30912,-5.48059 5.18926,-12.97114 7.5003,-18.50779 5.38725,-13.24893 11.14159,-26.37628 17.25949,-39.36947 1.97777,-4.1043 3.69836,-8.42844 6.10029,-12.34504 z"
     fill="#4a4e57" />
  <path
     style="stroke-width:0.666186"
     id="path348"
     d="m 284.44833,148.09829 c 0.42064,-0.0447 0.90046,-0.12031 1.30418,0.0441 1.72905,0.70357 3.25307,3.69614 4.17185,5.10203 -6.09888,4.58554 -12.86571,8.41018 -20.11517,11.36873 -1.32885,0.23558 -2.68799,0.34203 -4.03304,0.4806 -0.25859,-2.35702 -1.5212,-6.23771 0.19094,-8.28672 3.1051,-3.7163 13.47446,-8.03917 18.48124,-8.70873 z"
     fill="#4a4e57" />
  <path
     style="stroke-width:0.666186"
     id="path350"
     d="m 389.71882,145.45719 c 0.10005,-0.90576 0.21983,-1.82161 0.43332,-2.71226 0.26211,-1.09474 0.8152,-1.77123 1.90449,-2.36395 2.48648,-1.35235 7.01202,-0.0101 9.64364,0.57697 4.71931,0.72626 9.33081,1.5999 13.29057,4.11691 1.26966,1.13126 2.38854,2.35071 2.4125,4.04005 0.007,0.51588 -0.0768,1.03931 -0.15501,1.54888 -0.42909,0.0957 -0.85396,0.23558 -1.2753,0.35651 l -0.0852,0.44722 1.67197,0.98954 -0.4164,0.31242 c -5.65077,0.22298 -21.88298,-5.08692 -27.42453,-7.31229 z"
     fill="#4a4e57" />
  <path
     style="stroke-width:0.666186"
     id="path352"
     d="m 414.99084,145.07486 c 1.26966,1.13126 2.38854,2.35071 2.4125,4.04005 0.007,0.51588 -0.0768,1.03931 -0.15501,1.54888 -0.98571,-0.1455 -1.97072,-0.27148 -2.83666,-0.7483 -1.76287,-0.97064 -3.05719,-2.65495 -3.5504,-4.44318 1.64169,0.40879 2.61613,0.27085 4.12957,-0.39745 z"
     fill="#74747e" />
  <path
     style="stroke-width:0.666186"
     id="path354"
     d="m 401.70027,140.95795 c 4.71931,0.72626 9.33081,1.5999 13.29057,4.11691 -1.51344,0.6683 -2.48788,0.80624 -4.12957,0.39745 -2.3519,-2.13278 -6.91126,-1.92681 -9.161,-4.51436 z"
     fill="#5c5c61" />
  <path
     style="stroke-width:0.666186"
     id="path356"
     d="m 248.02768,592.34087 c -3.70964,0.0938 -8.52829,0.73696 -11.76304,-1.07521 -0.3396,-0.47241 -0.64821,-0.69224 -0.61721,-1.28244 0.14867,-2.77085 6.84715,-7.32489 9.16946,-9.24917 0.39386,0.65255 0.38822,0.83648 1.22668,1.04749 1.22668,0.30927 2.48718,-0.0195 3.60676,0.62295 l 0.24167,0.41824 c 0.85819,1.45251 1.32885,2.18443 3.12765,2.80171 -1.91999,2.11577 -3.7963,4.18808 -4.99197,6.71643 z"
     fill="#92b530" />
  <path
     style="stroke-width:0.666186"
     id="path358"
     d="m 170.89475,440.68942 -0.34032,-0.40564 0.14867,-0.57446 c 0.8307,-0.79994 1.60293,-1.36495 2.69081,-1.87767 2.3984,-1.13127 5.63033,0.28093 7.9935,0.99206 3.11356,0.82452 6.83517,1.73469 8.89678,4.13076 0.17404,0.88876 0.19236,0.84971 -0.34595,1.61061 -2.74787,1.53691 -6.07844,0.95049 -9.07574,0.3458 -3.54477,-0.71491 -7.38827,-1.83988 -9.96775,-4.22146 z"
     fill="#4a4e57" />
  <path
     style="stroke-width:0.666186"
     id="path360"
     d="m 170.89475,440.68942 -0.34032,-0.40564 0.14867,-0.57446 c 0.8307,-0.79994 1.60293,-1.36495 2.69081,-1.87767 2.3984,-1.13127 5.63033,0.28093 7.9935,0.99206 l -0.31354,0.42769 -0.61087,0.0586 c -4.29021,0.44092 -3.81532,2.83573 -8.51138,1.56085 -0.55732,-0.15181 -0.33467,-0.0951 -1.05687,-0.18141 z"
     fill="#74747e" />
  <path
     style="stroke-width:0.666186"
     id="path362"
     d="m 234.28688,70.77722 c 0.15571,0.0283 0.32058,0.0283 0.46573,0.085 1.70932,0.6683 3.14596,3.31191 4.05065,4.72663 -3.62015,2.23419 -6.96552,4.63025 -10.84777,6.52809 -1.22457,0.22297 -1.44722,0.37037 -2.62035,-0.10708 -1.16468,-1.16025 -1.45004,-2.84329 -1.90238,-4.31784 3.96751,-2.02948 7.37065,-4.29138 10.85412,-6.91484 z"
     fill="#4a4e57" />
  <path
     style="stroke-width:0.666186"
     id="path364"
     d="m 435.55976,58.49391 c 0.42698,0.29271 0.86382,0.57779 1.28587,0.8756 3.1199,2.19955 6.48781,3.19854 10.21435,4.27494 -0.60171,2.04963 -1.24711,4.76064 -2.66685,6.47392 l -0.44318,-0.22109 c -4.25498,-2.10065 -8.55506,-4.27122 -12.59937,-6.68241 1.31616,-1.66572 2.68728,-3.20124 4.20918,-4.72096 z"
     fill="#4a4e57" />
  <path
     style="stroke-width:0.666186"
     id="path366"
     d="m 558.35185,374.56324 c -2.46745,-0.27274 -5.40698,-0.84152 -7.55666,-1.98476 -1.27248,-0.67712 -1.98411,-1.3681 -2.3667,-2.64487 0.0951,-0.4069 0.11696,-0.78861 0.39386,-1.13001 l -0.23674,0.37352 0.54465,-0.62232 c 2.58159,-0.62547 9.1455,2.87163 12.12096,3.55631 l 0.54182,0.12094 c 2.74647,0.14991 5.47039,0.27651 8.2225,0.25321 -0.84762,1.34983 -1.35421,2.46094 -3.11004,2.93965 -2.3984,0.65382 -6.29757,0.0655 -8.55365,-0.86167 z"
     fill="#4a4e57" />
  <path
     style="stroke-width:0.666186"
     id="path368"
     d="m 558.35185,374.56324 c -2.46745,-0.27274 -5.40698,-0.84152 -7.55666,-1.98476 -1.27248,-0.67712 -1.98411,-1.3681 -2.3667,-2.64487 0.0951,-0.4069 0.11696,-0.78861 0.39386,-1.13001 l -0.23674,0.37352 0.54465,-0.62232 c 2.58159,-0.62547 9.1455,2.87163 12.12096,3.55631 l 0.54182,0.12094 -0.57494,0.32816 c -1.21259,-0.23494 -3.71386,-1.29566 -4.65378,-0.86923 -0.26915,0.8264 -0.23322,1.16843 0.0627,1.98475 0.66583,0.47304 1.02517,0.50076 1.86433,0.5354 z"
     fill="#5c5c61" />
  <path
     style="stroke-width:0.666186"
     id="path370"
     d="m 486.36873,575.11992 3.25165,0.77034 c 1.87279,2.40993 5.63597,5.60027 6.39199,8.46245 0.22265,0.84341 0.11062,1.15269 -0.41359,1.84933 -0.384,0.10897 -0.43896,0.14803 -0.89623,0.15181 -3.48558,0.0309 -10.24747,-8.62623 -12.75791,-11.17536 1.47188,0.0397 2.95151,-0.0258 4.42409,-0.0586 z"
     fill="#92b530" />
  <path
     style="stroke-width:0.666186"
     id="path372"
     d="m 364.17835,377.18417 c 0.52069,-0.0957 0.2614,-0.12534 0.7673,0.13984 -6.578,1.63769 -17.93378,1.88208 -24.70483,1.17283 l -2.42025,-0.38863 -0.0902,-0.2929 c 2.74365,-0.35525 5.64302,-0.12975 8.4219,-0.18266 6.0101,-0.10519 12.01879,-0.25447 18.02607,-0.44848 z"
     fill="#1b171b" />
  <path
     style="stroke-width:0.666186"
     id="path374"
     d="m 484.49876,571.92264 c 2.18069,1.0878 3.73641,2.04963 5.12162,3.96762 l -3.25165,-0.77034 -2.63162,-1.53565 c 0.13105,-0.55115 0.50871,-1.14009 0.76165,-1.66163 z"
     fill="#f6fa96" />
  <path
     style="stroke-width:0.666186"
     id="path376"
     d="m 147.73648,214.25722 c 3.27561,1.35173 3.62367,5.64689 5.65922,8.15444 1.8608,2.2934 5.83677,3.48388 8.09144,5.59335 0.61369,0.57382 0.85748,0.90199 0.87509,1.68997 l -0.6454,0.451 c -1.66352,0.16439 -3.2136,-0.36912 -4.79892,-0.77224 -5.17094,-1.51297 -10.59624,-2.61149 -15.85243,-3.89015 1.1069,-4.33799 2.95643,-8.1727 6.671,-11.22637 z" />
  <path
     style="stroke-width:0.666186"
     id="path378"
     d="m 523.86246,172.39847 c 3.65538,1.64903 6.59491,4.30146 8.92074,7.27828 -4.01331,2.39796 -7.96321,4.87843 -11.84828,7.43952 -1.3366,0.98766 -2.57667,1.92051 -4.28387,2.31482 -0.93992,-0.1959 -0.90046,-0.22109 -1.47329,-0.92593 1.19709,-2.4937 3.45458,-4.44696 4.82499,-6.84618 1.86151,-3.26026 0.98571,-6.20748 3.85971,-9.26051 z" />
  <path
     style="stroke-width:0.666186"
     id="path380"
     d="m 160.41758,240.03637 c 0.48969,0.0277 0.7532,0.22739 1.1682,0.44595 0.2304,2.47166 -6.16793,5.00252 -7.5933,7.03767 -0.59396,0.84845 -0.34947,1.97845 -0.56367,2.91257 -0.32763,1.43235 -2.43645,2.42378 -3.69695,3.19727 -0.8293,-0.63996 -1.61068,-1.36495 -2.40475,-2.04207 -1.7375,-2.24553 -3.1671,-4.66931 -4.2585,-7.21907 5.59369,-1.87012 11.54813,-3.0839 17.34897,-4.33232 z" />
  <path
     style="stroke-width:0.666186"
     id="path382"
     d="m 536.42097,192.79402 1.01319,-0.0938 0.51576,0.4743 c 0.25435,2.10317 0.43895,4.15092 0.24449,6.2648 -0.14022,1.52368 -0.1846,3.83598 -1.567,4.87339 -3.46091,0.23809 -3.99851,-3.89582 -7.03457,-4.73356 -0.1078,-0.0302 -0.2163,-0.0573 -0.32481,-0.0857 -2.1525,-0.25006 -4.64814,-0.36848 -6.67946,-1.08403 -0.99557,-0.35084 -1.4155,-0.49634 -1.815,-1.39329 0.0359,-0.0605 0.0571,-0.12976 0.1078,-0.18078 1.96015,-1.96523 12.3274,-3.39884 15.5396,-4.04132 z" />
</svg>
